<svg width="113" height="55" fill="none" xmlns="http://www.w3.org/2000/svg"><path d="M35.113 35.501h7.153v2.342h-3.403V54.3h-3.75V35.501zm11.393 11.741l.643-9.399h.215l.643 9.4h-1.5zM42.353 54.3h3.672l.348-4.992h1.768l.349 4.992h3.67l-1.956-18.798H44.31L42.354 54.3zm15.177-6.58v3.544c0 .477.37.616.585.616.354 0 .6-.293.6-.616v-4.376c0-.586-.108-1.233-1.507-1.233h-1.522V43.59h1.584c1.06 0 1.445-.246 1.445-1.402V38.46a.604.604 0 00-.6-.616c-.215 0-.584.123-.584.616v3.067h-3.752V38.86c0-1.31.154-3.359 2.783-3.359h3.106c2.63 0 2.799 2.05 2.799 3.359v3.005c0 2.049-1.43 2.604-2.553 2.557v.185c2.522-.061 2.553 1.88 2.553 2.543v3.79c0 1.325-.17 3.36-2.799 3.36h-3.106c-2.629 0-2.783-2.035-2.783-3.36v-3.22h3.752zm7.396-12.219h8.687v18.798h-3.752V37.843h-1.184V54.3h-3.751V35.501zm14.9 10.339v-7.997h.492c.4 0 .692.339.692.94V44.9c0 .601-.292.94-.692.94h-.492zm-3.752 8.46h3.752v-6.395h2.152c2.614 0 2.783-2.034 2.783-3.36V38.86c0-1.31-.169-3.359-2.783-3.359h-5.904v18.798zm16.082-3.036a.604.604 0 01-.6.616c-.215 0-.584-.139-.584-.616V38.459c0-.493.37-.616.585-.616.353 0 .6.293.6.616v12.805zm-4.935-.324c0 1.325.169 3.36 2.783 3.36h3.12c2.615 0 2.784-2.035 2.784-3.36V38.86c0-1.31-.17-3.359-2.783-3.359h-3.121c-2.614 0-2.783 2.05-2.783 3.359v12.08zm20.896-15.439h4.89v18.798h-3.752V42.512h-.138l-1.938 11.787h-2.998l-1.922-11.787h-.138v11.787h-3.752V35.501h4.874l2.445 13.22 2.429-13.22zM30.25 9.8C29.102 4.76 26.224.663 25.827 0c-.628.94-2.923 4.56-4.09 8.567-1.275 4.484-1.462 8.46-1.023 12.358.437 3.913 2.087 7.935 2.087 7.935.876 2.095 2.19 4.36 3.044 5.47 1.253-1.633 4.133-6.502 5.031-12.85.5-3.545.521-6.642-.626-11.68zm-4.423 23.266c-.565-1.063-1.44-3.081-1.524-6.225-.021-3.02 1.189-5.624 1.542-6.163.316.54 1.358 2.804 1.483 5.901.084 3.02-.918 5.409-1.501 6.487zm4.09-14.715c-.043 1.926-.272 3.96-.565 5.178.105-2.096-.146-5.039-.625-7.35-.48-2.296-1.838-6.148-2.922-7.92-1 1.695-2.234 5.023-2.88 7.904-.648 2.882-.667 6.38-.667 7.427-.172-.878-.603-4.037-.481-7.195.101-2.604.71-5.301 1.044-6.534 1.273-4.114 2.714-6.749 2.984-7.165.27.416 2.085 3.668 3.026 7.073.937 3.405 1.126 6.672 1.086 8.582z" fill="#0079C2"/><path d="M27.776 35.5h-8.732v5.871c.008 0 .014-.015.021-.015a5.258 5.258 0 017.453 0c2.057 2.05 2.057 5.393 0 7.458-.01.015-.018.015-.028.03-.01 0-.021.016-.03.031a10.504 10.504 0 01-7.416 3.051 10.448 10.448 0 01-7.442-3.082c-3.622-3.62-4.051-9.245-1.29-13.343.372-.555.801-1.079 1.29-1.572a10.448 10.448 0 017.442-3.082V16.733C8.694 16.733.303 25.131.303 35.501c0 10.37 8.39 18.783 18.741 18.783 5.397 0 10.259-2.296 13.678-5.948V35.501h-4.946z" fill="#0079C2"/></svg>