<svg width="37" height="29" viewBox="0 0 37 29" fill="none" xmlns="http://www.w3.org/2000/svg">
<path d="M0 7.57551C0 5.28708 0.770832 3.43266 2.3125 2.01225C3.77708 0.670752 5.62708 0 7.8625 0C10.7146 0 12.95 0.907488 14.5688 2.72245C16.1875 4.61633 16.9969 7.10204 16.9969 10.1796C16.9969 13.3361 16.5344 16.019 15.6094 18.2286C14.6073 20.4381 13.451 22.2531 12.1406 23.6735C10.7531 25.1728 9.32708 26.317 7.8625 27.1061C6.39792 27.9742 5.12604 28.6054 4.04688 29L0.346874 22.6082C1.88854 21.9769 3.19896 20.951 4.27813 19.5306C5.35729 18.1891 5.97396 16.7293 6.12813 15.151C4.58646 15.151 3.19896 14.4408 1.96563 13.0204C0.655209 11.6789 0 9.86395 0 7.57551ZM20.0031 7.57551C20.0031 5.28708 20.774 3.43266 22.3156 2.01225C23.7802 0.670752 25.6302 0 27.8656 0C30.7177 0 32.9531 0.907488 34.5719 2.72245C36.1906 4.61633 37 7.10204 37 10.1796C37 13.3361 36.5375 16.019 35.6125 18.2286C34.6104 20.4381 33.4542 22.2531 32.1438 23.6735C30.7563 25.1728 29.3302 26.317 27.8656 27.1061C26.401 27.9742 25.1292 28.6054 24.05 29L20.35 22.6082C21.8917 21.9769 23.2021 20.951 24.2813 19.5306C25.3604 18.1891 25.9771 16.7293 26.1313 15.151C24.5896 15.151 23.2021 14.4408 21.9688 13.0204C20.6583 11.6789 20.0031 9.86395 20.0031 7.57551Z" fill="#DBDFFF"/>
</svg>
