<svg width="37" height="29" viewBox="0 0 37 29" fill="none" xmlns="http://www.w3.org/2000/svg">
<path d="M37 21.4245C37 23.7129 36.2292 25.5673 34.6875 26.9877C33.2229 28.3292 31.3729 29 29.1375 29C26.2854 29 24.05 28.0925 22.4312 26.2775C20.8125 24.3837 20.0031 21.898 20.0031 18.8204C20.0031 15.6639 20.4656 12.981 21.3906 10.7714C22.3927 8.5619 23.549 6.74694 24.8594 5.32653C26.2469 3.82721 27.6729 2.68299 29.1375 1.89387C30.6021 1.02585 31.874 0.394557 32.9531 0L36.6531 6.39183C35.1115 7.02313 33.801 8.04898 32.7219 9.46939C31.6427 10.8109 31.026 12.2707 30.8719 13.849C32.4135 13.849 33.801 14.5592 35.0344 15.9796C36.3448 17.3211 37 19.1361 37 21.4245ZM16.9969 21.4245C16.9969 23.7129 16.226 25.5673 14.6844 26.9877C13.2198 28.3292 11.3698 29 9.13438 29C6.28229 29 4.04688 28.0925 2.42812 26.2775C0.809375 24.3837 0 21.898 0 18.8204C0 15.6639 0.4625 12.981 1.3875 10.7714C2.38958 8.5619 3.54583 6.74694 4.85625 5.32653C6.24375 3.82721 7.66979 2.68299 9.13438 1.89387C10.599 1.02585 11.8708 0.394557 12.95 0L16.65 6.39183C15.1083 7.02313 13.7979 8.04898 12.7187 9.46939C11.6396 10.8109 11.0229 12.2707 10.8687 13.849C12.4104 13.849 13.7979 14.5592 15.0312 15.9796C16.3417 17.3211 16.9969 19.1361 16.9969 21.4245Z" fill="#DBDFFF"/>
</svg>
