<svg width="56" height="54" viewBox="0 0 56 54" fill="none" xmlns="http://www.w3.org/2000/svg">
<g clip-path="url(#clip0_2320_3439)">
<path d="M3.37695 52.6924H52.6252" stroke="#1A1A1A" stroke-width="2" stroke-linecap="round" stroke-linejoin="round"/>
<path d="M0.791016 17.6136L28.0017 1.30713L55.2102 17.6136" stroke="#1A1A1A" stroke-width="2" stroke-linecap="round" stroke-linejoin="round"/>
<path d="M16.631 49.2837L14.498 43.3428H9.69141" stroke="#1A1A1A" stroke-width="2" stroke-linecap="round" stroke-linejoin="round"/>
<path d="M7.71466 28.0869V43.3428L5.58398 49.2836" stroke="#1A1A1A" stroke-width="2" stroke-linecap="round" stroke-linejoin="round"/>
<path d="M16.631 19.7031L14.498 25.644V40.3336" stroke="#1A1A1A" stroke-width="2" stroke-linecap="round" stroke-linejoin="round"/>
<path d="M11.9668 25.644H7.71466L5.58398 19.7031" stroke="#1A1A1A" stroke-width="2" stroke-linecap="round" stroke-linejoin="round"/>
<path d="M43.4766 43.3428H48.2855L50.4184 49.2837" stroke="#1A1A1A" stroke-width="2" stroke-linecap="round" stroke-linejoin="round"/>
<path d="M41.5021 28.0869V43.3428L39.3691 49.2836" stroke="#1A1A1A" stroke-width="2" stroke-linecap="round" stroke-linejoin="round"/>
<path d="M50.4181 19.7031L48.2852 25.644V40.3336" stroke="#1A1A1A" stroke-width="2" stroke-linecap="round" stroke-linejoin="round"/>
<path d="M45.7543 25.644H41.5021L39.3691 19.7031" stroke="#1A1A1A" stroke-width="2" stroke-linecap="round" stroke-linejoin="round"/>
<path d="M26.8145 43.3428H31.6211L33.754 49.2837" stroke="#1A1A1A" stroke-width="2" stroke-linecap="round" stroke-linejoin="round"/>
<path d="M24.8377 28.0869V43.3428L22.707 49.2836" stroke="#1A1A1A" stroke-width="2" stroke-linecap="round" stroke-linejoin="round"/>
<path d="M33.7541 19.7031L31.6211 25.644V40.3336" stroke="#1A1A1A" stroke-width="2" stroke-linecap="round" stroke-linejoin="round"/>
<path d="M29.0899 25.644H24.8377L22.707 19.7031" stroke="#1A1A1A" stroke-width="2" stroke-linecap="round" stroke-linejoin="round"/>
<path d="M21.9766 12.1641H34.0733" stroke="#1A1A1A" stroke-width="2" stroke-linecap="round" stroke-linejoin="round"/>
<path d="M5.62891 19.7031H50.4188" stroke="#1A1A1A" stroke-width="2" stroke-linecap="round" stroke-linejoin="round"/>
</g>
<defs>
<clipPath id="clip0_2320_3439">
<rect width="56" height="53" fill="white" transform="translate(0 0.5)"/>
</clipPath>
</defs>
</svg>
