<svg width="69" height="68" viewBox="0 0 69 68" fill="none" xmlns="http://www.w3.org/2000/svg">
<circle cx="35" cy="34" r="33" stroke="#E30513" stroke-width="2"/>
<g clip-path="url(#clip0_2320_3419)">
<path fill-rule="evenodd" clip-rule="evenodd" d="M26.9655 19.6316C26.9655 18.7179 27.6634 18 28.5517 18H36.4828C41.4 18 46 21.3284 46 26.1579C46 30.9874 41.4 34.3158 36.4828 34.3158H30.1379V39.2105H40.4483C41.3366 39.2105 42.0345 39.9284 42.0345 40.8421C42.0345 41.7558 41.3366 42.4737 40.4483 42.4737H30.1379V47.3684C30.1379 48.2821 29.44 49 28.5517 49C27.6634 49 26.9655 48.2821 26.9655 47.3684V42.4737H24.5862C23.6979 42.4737 23 41.7558 23 40.8421C23 39.9284 23.6979 39.2105 24.5862 39.2105H26.9655V34.3158H24.5862C23.6979 34.3158 23 33.5979 23 32.6842C23 31.7705 23.6979 31.0526 24.5862 31.0526H26.9655V19.6316ZM30.1379 31.0526H36.4828C40.3214 31.0526 42.8276 28.54 42.8276 26.1579C42.8276 23.7758 40.3214 21.2632 36.4828 21.2632H30.1379V31.0526Z" fill="black"/>
</g>
<defs>
<clipPath id="clip0_2320_3419">
<rect width="23" height="31" fill="white" transform="translate(23 18)"/>
</clipPath>
</defs>
</svg>
