<svg display="none" xmlns="http://www.w3.org/2000/svg">
	<symbol id="close" viewBox="0 0 15 15">
  	<path d="M12.0377 13.9229C12.5584 14.4436 13.4026 14.4436 13.9233 13.9229C14.444 13.4022 14.444 12.5579 13.9233 12.0372L9.20938 7.32335L13.9234 2.60935C14.4441 2.08865 14.4441 1.24443 13.9234 0.723732C13.4027 0.203034 12.5585 0.203033 12.0378 0.723732L7.32376 5.43773L2.60956 0.723532C2.08886 0.202833 1.24464 0.202833 0.723944 0.723532C0.203245 1.24423 0.203245 2.08845 0.723944 2.60915L5.43814 7.32335L0.724052 12.0374C0.203353 12.5581 0.203353 13.4024 0.724052 13.9231C1.24475 14.4438 2.08897 14.4438 2.60967 13.9231L7.32376 9.20897L12.0377 13.9229Z"/>
	</symbol>
	<symbol id="message" viewBox="0 0 30 30" fill="none">
  	<path d="M26.25 14.375C26.2543 16.0249 25.8688 17.6524 25.125 19.125C24.243 20.8897 22.8872 22.374 21.2093 23.4116C19.5314 24.4493 17.5978 24.9993 15.625 25C13.9752 25.0043 12.3476 24.6189 10.875 23.875L3.75 26.25L6.125 19.125C5.38116 17.6524 4.9957 16.0249 5 14.375C5.00076 12.4022 5.55076 10.4686 6.5884 8.79072C7.62603 7.11285 9.11032 5.75699 10.875 4.87504C12.3476 4.1312 13.9752 3.74573 15.625 3.75004H16.25C18.8554 3.89378 21.3163 4.99349 23.1614 6.83861C25.0065 8.68373 26.1063 11.1446 26.25 13.75V14.375Z" stroke="#E30513" stroke-width="2" stroke-linecap="round" stroke-linejoin="round" />
	</symbol>
	<symbol id="message-white" viewBox="0 0 30 30" fill="none">
  	<path d="M26.25 14.375C26.2543 16.0249 25.8688 17.6524 25.125 19.125C24.243 20.8897 22.8872 22.374 21.2093 23.4116C19.5314 24.4493 17.5978 24.9993 15.625 25C13.9752 25.0043 12.3476 24.6189 10.875 23.875L3.75 26.25L6.125 19.125C5.38116 17.6524 4.9957 16.0249 5 14.375C5.00076 12.4022 5.55076 10.4686 6.5884 8.79072C7.62603 7.11285 9.11032 5.75699 10.875 4.87504C12.3476 4.1312 13.9752 3.74573 15.625 3.75004H16.25C18.8554 3.89378 21.3163 4.99349 23.1614 6.83861C25.0065 8.68373 26.1063 11.1446 26.25 13.75V14.375Z" stroke="#fff" stroke-width="2" stroke-linecap="round" stroke-linejoin="round" />
	</symbol>
	<symbol id="mail" viewBox="0 0 30 30" fill="none">
  	<path d="M15 20C17.7614 20 20 17.7614 20 15C20 12.2386 17.7614 10 15 10C12.2386 10 10 12.2386 10 15C10 17.7614 12.2386 20 15 20Z" stroke="#E30513" stroke-width="2" stroke-linecap="round" stroke-linejoin="round" />
  	<path d="M20 10.0002V16.2502C20 17.2448 20.3951 18.1986 21.0984 18.9019C21.8016 19.6051 22.7555 20.0002 23.75 20.0002C24.7446 20.0002 25.6984 19.6051 26.4017 18.9019C27.1049 18.1986 27.5 17.2448 27.5 16.2502V15.0002C27.4998 12.179 26.5453 9.4408 24.7916 7.23087C23.0379 5.02093 20.5882 3.46923 17.8408 2.82807C15.0934 2.18691 12.2099 2.494 9.6592 3.69941C7.10846 4.90482 5.04051 6.93765 3.79158 9.46735C2.54266 11.9971 2.18622 14.8749 2.78022 17.6328C3.37422 20.3908 4.88373 22.8667 7.0633 24.658C9.24287 26.4493 11.9643 27.4506 14.7851 27.4991C17.6059 27.5476 20.3601 26.6405 22.6 24.9252" stroke="#E30513" stroke-width="2" stroke-linecap="round" stroke-linejoin="round" />
	</symbol>
	
	<symbol id="phone" viewBox="0 0 30 30" fill="none">
  	<path d="M17.5626 7.5C18.7835 7.73821 19.9055 8.33532 20.7851 9.21492C21.6647 10.0945 22.2619 11.2166 22.5001 12.4375M17.5626 2.5C20.0992 2.7818 22.4646 3.91772 24.2704 5.72126C26.0762 7.5248 27.2151 9.88876 27.5001 12.425M23.125 26.25C12.4245 26.25 3.75 17.5755 3.75 6.875C3.75 6.39222 3.76766 5.91357 3.80236 5.43966C3.84219 4.89577 3.8621 4.62383 4.00463 4.37629C4.12267 4.17127 4.33188 3.97682 4.54497 3.87407C4.80226 3.75 5.10235 3.75 5.70252 3.75H9.22415C9.72885 3.75 9.9812 3.75 10.1975 3.83306C10.3886 3.90644 10.5588 4.02561 10.693 4.18012C10.845 4.35504 10.9313 4.5922 11.1037 5.06651L12.5614 9.07506C12.7621 9.62691 12.8624 9.90283 12.8454 10.1646C12.8303 10.3955 12.7516 10.6176 12.6178 10.8063C12.4661 11.0204 12.2143 11.1714 11.7108 11.4735L10 12.5C11.5024 15.8111 14.1877 18.4999 17.5 20L18.5265 18.2892C18.8286 17.7857 18.9796 17.5339 19.1937 17.3822C19.3824 17.2484 19.6045 17.1697 19.8354 17.1546C20.0972 17.1376 20.3731 17.2379 20.9249 17.4386L24.9335 18.8963C25.4078 19.0687 25.645 19.155 25.8199 19.307C25.9744 19.4412 26.0936 19.6114 26.1669 19.8025C26.25 20.0188 26.25 20.2712 26.25 20.7759V24.2975C26.25 24.8977 26.25 25.1977 26.1259 25.455C26.0232 25.6681 25.8287 25.8773 25.6237 25.9954C25.3762 26.1379 25.1042 26.1578 24.5603 26.1976C24.0864 26.2323 23.6078 26.25 23.125 26.25Z" stroke="#E30513" stroke-width="2" stroke-linecap="round" stroke-linejoin="round" />
	</symbol>
	<symbol id="search" viewBox="0 0 28 29" fill="none">
  	<path d="M12.8333 22.6667C17.988 22.6667 22.1667 18.488 22.1667 13.3333C22.1667 8.17868 17.988 4 12.8333 4C7.67868 4 3.5 8.17868 3.5 13.3333C3.5 18.488 7.67868 22.6667 12.8333 22.6667Z" stroke="#E30513" stroke-width="2" stroke-linecap="round" stroke-linejoin="round" />
  	<path d="M24.5008 24.9998L19.4258 19.9248" stroke="#E30513" stroke-width="2" stroke-linecap="round" stroke-linejoin="round" />
	</symbol>
	<symbol id="calc" viewBox="0 0 28 28" fill="none">
  	<path d="M5.83398 10.5H22.1673M17.5007 21V17.5M10.5007 21H10.5123M14.0007 21H14.0123M14.0007 17.5H14.0123M10.5007 17.5H10.5123M17.5007 14H17.5123M14.0007 14H14.0123M10.5007 14H10.5123M9.56732 24.5H18.434C19.7408 24.5 20.3942 24.5 20.8933 24.2457C21.3323 24.022 21.6893 23.665 21.913 23.226C22.1673 22.7269 22.1673 22.0735 22.1673 20.7667V7.23333C22.1673 5.92654 22.1673 5.27315 21.913 4.77402C21.6893 4.33498 21.3323 3.97802 20.8933 3.75432C20.3942 3.5 19.7408 3.5 18.434 3.5H9.56732C8.26053 3.5 7.60713 3.5 7.10801 3.75432C6.66896 3.97802 6.31201 4.33498 6.0883 4.77402C5.83398 5.27315 5.83398 5.92654 5.83398 7.23333V20.7667C5.83398 22.0735 5.83398 22.7269 6.0883 23.226C6.31201 23.665 6.66896 24.022 7.10801 24.2457C7.60713 24.5 8.26053 24.5 9.56732 24.5Z" stroke="white" stroke-width="1.5" stroke-linecap="round" stroke-linejoin="round" />
	</symbol>
	<symbol id="arrow-slider" viewBox="0 0 34 34" fill="none">
  	<path d="M12.75 25.5L21.25 17L12.75 8.5" stroke="black" stroke-width="2" stroke-linecap="round" stroke-linejoin="round" />
	</symbol>
	<symbol id="play" viewBox="0 0 25 34" fill="none">
  	 <path d="M0.5 0.75L24.25 17L0.5 33.25V0.75Z" fill="white" />
	</symbol>
	<symbol id="plus" viewBox="0 0 14 14" fill="none">
		<path d="M7 1V13" stroke-width="2" stroke-linecap="round" stroke-linejoin="round"></path>
		<path d="M1 7H13" stroke-width="2" stroke-linecap="round" stroke-linejoin="round"></path>
	</symbol>
	<symbol id="telegram" viewBox="0 0 36 36" fill="none">
		<g clip-path="url(#clip0_355_6032)">
  	  <path d="M18 36C27.9411 36 36 27.9411 36 18C36 8.05887 27.9411 0 18 0C8.05887 0 0 8.05887 0 18C0 27.9411 8.05887 36 18 36Z" fill="url(#paint0_linear_355_6032)" />
  	  <path d="M14.7008 26.25C14.1176 26.25 14.2167 26.0298 14.0156 25.4746L12.3008 19.8309L25.5008 12" fill="#C8DAEA" />
  	  <path d="M14.6992 26.2501C15.1492 26.2501 15.348 26.0443 15.5992 25.8001L17.9992 23.4664L15.0055 21.6611" fill="#A9C9DD" />
  	  <path d="M15.0061 21.6615L22.2601 27.0208C23.0879 27.4776 23.6853 27.2411 23.8915 26.2523L26.8442 12.3379C27.1465 11.1258 26.3822 10.5761 25.5903 10.9356L8.25182 17.6213C7.0683 18.096 7.0752 18.7563 8.03609 19.0505L12.4855 20.4392L22.7865 13.9405C23.2728 13.6456 23.7191 13.8041 23.3528 14.1292" fill="url(#paint1_linear_355_6032)" />
  	</g>
  	<defs>
  	  <linearGradient id="paint0_linear_355_6032" x1="384.019" y1="96.0192" x2="240.019" y2="432" gradientUnits="userSpaceOnUse">
  	    <stop stop-color="#37AEE2" />
  	    <stop offset="1" stop-color="#1E96C8" />
  	  </linearGradient>
  	  <linearGradient id="paint1_linear_355_6032" x1="213.944" y1="125.591" x2="259.014" y2="228.151" gradientUnits="userSpaceOnUse">
  	    <stop stop-color="#EFF7FC" />
  	    <stop offset="1" stop-color="white" />
  	  </linearGradient>
  	  <clipPath id="clip0_355_6032">
  	    <rect width="36" height="36" fill="white" />
  	  </clipPath>
  	</defs>
	</symbol>

	<symbol id="vk" viewBox="0 0 36 36" fill="none">
		<g clip-path="url(#clip0_355_6037)">
    	<path d="M35.4426 18C35.4426 8.21278 27.5085 0.278687 17.7213 0.278687C7.93409 0.278687 0 8.21278 0 18C0 27.7872 7.93409 35.7213 17.7213 35.7213C27.5085 35.7213 35.4426 27.7872 35.4426 18Z" fill="#0077FF" />
    	<path fill-rule="evenodd" clip-rule="evenodd" d="M28.0639 12.929C28.2137 12.4605 28.0639 12.1162 27.3511 12.1162H24.9939C24.3945 12.1162 24.1182 12.4136 23.9683 12.7416C23.9683 12.7416 22.7696 15.4824 21.0715 17.2629C20.5221 17.7782 20.2723 17.9422 19.9726 17.9422C19.8228 17.9422 19.6059 17.7782 19.6059 17.3097V12.929C19.6059 12.3668 19.432 12.1162 18.9325 12.1162H15.2283C14.8538 12.1162 14.6285 12.3772 14.6285 12.6245C14.6285 13.1575 15.4775 13.2804 15.565 14.7797V18.0359C15.565 18.7498 15.4276 18.8793 15.1279 18.8793C14.3288 18.8793 12.385 16.1261 11.2321 12.9758C11.0062 12.3635 10.7796 12.1162 10.1771 12.1162H7.81994C7.14643 12.1162 7.01172 12.4136 7.01172 12.7416C7.01172 13.3272 7.81088 16.2321 10.7327 20.074C12.6806 22.6977 15.425 24.1199 17.9222 24.1199C19.4206 24.1199 19.606 23.8041 19.606 23.26V21.277C19.606 20.6452 19.7479 20.5191 20.2224 20.5191C20.572 20.5191 21.1714 20.6831 22.5699 21.9481C24.1681 23.4473 24.4316 24.1199 25.3306 24.1199H27.6878C28.3613 24.1199 28.698 23.8041 28.5038 23.1807C28.2912 22.5594 27.5281 21.658 26.5156 20.5894C25.9661 19.9803 25.1421 19.3244 24.8923 18.9964C24.5427 18.5747 24.6426 18.3873 24.8923 18.0125C24.8923 18.0125 27.7642 14.2174 28.0639 12.929Z" fill="white" />
  	</g>
  	<defs>
	    <clipPath id="clip0_355_6037">
  	    <rect width="35.6129" height="36" fill="white" />
    	</clipPath>
  	</defs>
	</symbol>

	<symbol id="youtube" viewBox="0 0 37 36" fill="none">
		<g clip-path="url(#clip0_355_6040)">
			<path d="M18.6137 35.8681C28.4818 35.8681 36.4814 27.8685 36.4814 18.0005C36.4814 8.13243 28.4818 0.132812 18.6137 0.132812C8.74571 0.132812 0.746094 8.13243 0.746094 18.0005C0.746094 27.8685 8.74571 35.8681 18.6137 35.8681Z" fill="#E43535" />
			<path fill-rule="evenodd" clip-rule="evenodd" d="M24.3944 23.9568H13.4287C12.022 23.9568 10.8711 22.781 10.8711 21.3439V15.2535C10.8711 13.8164 12.022 12.6406 13.4287 12.6406H24.3944C25.8011 12.6406 26.952 13.8164 26.952 15.2535V21.3439C26.952 22.781 25.8011 23.9568 24.3944 23.9568ZM17.4513 16.1103V20.9432L21.8299 18.448L17.4513 16.1103Z" fill="white" />
		</g>
		<defs>
			<clipPath id="clip0_355_6040">
				<rect width="36" height="36" fill="white" transform="translate(0.613281)" />
			</clipPath>
  	</defs>
	</symbol>

	<symbol id="map-flag" viewBox="0 0 38 38" fill="none">
		<g filter="url(#filter0_d_355_6386)">
			<circle cx="19" cy="19" r="7" fill="#E30513" />
			<circle cx="19" cy="19" r="6.6" stroke="#E9676F" stroke-width="0.8" />
		</g>
		<defs>
			<filter id="filter0_d_355_6386" x="0.4" y="0.4" width="37.2" height="37.2" filterUnits="userSpaceOnUse" color-interpolation-filters="sRGB">
			  <feFlood flood-opacity="0" result="BackgroundImageFix" />
			  <feColorMatrix in="SourceAlpha" type="matrix" values="0 0 0 0 0 0 0 0 0 0 0 0 0 0 0 0 0 0 127 0" result="hardAlpha" />
			  <feOffset />
			  <feGaussianBlur stdDeviation="5.8" />
			  <feComposite in2="hardAlpha" operator="out" />
			  <feColorMatrix type="matrix" values="0 0 0 0 1 0 0 0 0 0.279167 0 0 0 0 0.324625 0 0 0 1 0" />
			  <feBlend mode="normal" in2="BackgroundImageFix" result="effect1_dropShadow_355_6386" />
			  <feBlend mode="normal" in="SourceGraphic" in2="effect1_dropShadow_355_6386" result="shape" />
			</filter>
		</defs>
	</symbol>
	<symbol id="map-flag-active" viewBox="0 0 44 44" fill="none">
		<g filter="url(#filter0_d_355_6388)">
    <circle cx="22" cy="22" r="7" fill="#E30513" />
    <circle cx="22" cy="22" r="6.6" stroke="#FFCACD" stroke-width="0.8" />
  </g>
  <defs>
    <filter id="filter0_d_355_6388" x="0.4" y="0.4" width="43.2" height="43.2" filterUnits="userSpaceOnUse" color-interpolation-filters="sRGB">
      <feFlood flood-opacity="0" result="BackgroundImageFix" />
      <feColorMatrix in="SourceAlpha" type="matrix" values="0 0 0 0 0 0 0 0 0 0 0 0 0 0 0 0 0 0 127 0" result="hardAlpha" />
      <feMorphology radius="3" operator="dilate" in="SourceAlpha" result="effect1_dropShadow_355_6388" />
      <feOffset />
      <feGaussianBlur stdDeviation="5.8" />
      <feComposite in2="hardAlpha" operator="out" />
      <feColorMatrix type="matrix" values="0 0 0 0 1 0 0 0 0 0.279167 0 0 0 0 0.324625 0 0 0 1 0" />
      <feBlend mode="normal" in2="BackgroundImageFix" result="effect1_dropShadow_355_6388" />
      <feBlend mode="normal" in="SourceGraphic" in2="effect1_dropShadow_355_6388" result="shape" />
    </filter>
  </defs>
	</symbol>

	<symbol id="power" viewBox="0 0 20 21" fill="none">
		<path d="M10.8333 2.1665L2.5 12.1665H10L9.16667 18.8332L17.5 8.83317H10L10.8333 2.1665Z" stroke="#0F8A0F" stroke-width="1.5" stroke-linecap="round" stroke-linejoin="round" />
	</symbol>

</svg>

