<svg display="none" xmlns="http://www.w3.org/2000/svg">
	<symbol id="close" viewBox="0 0 15 15">
  	<path d="M12.0377 13.9229C12.5584 14.4436 13.4026 14.4436 13.9233 13.9229C14.444 13.4022 14.444 12.5579 13.9233 12.0372L9.20938 7.32335L13.9234 2.60935C14.4441 2.08865 14.4441 1.24443 13.9234 0.723732C13.4027 0.203034 12.5585 0.203033 12.0378 0.723732L7.32376 5.43773L2.60956 0.723532C2.08886 0.202833 1.24464 0.202833 0.723944 0.723532C0.203245 1.24423 0.203245 2.08845 0.723944 2.60915L5.43814 7.32335L0.724052 12.0374C0.203353 12.5581 0.203353 13.4024 0.724052 13.9231C1.24475 14.4438 2.08897 14.4438 2.60967 13.9231L7.32376 9.20897L12.0377 13.9229Z"/>
	</symbol>
	<symbol id="message" viewBox="0 0 30 30" fill="none">
  	<path d="M26.25 14.375C26.2543 16.0249 25.8688 17.6524 25.125 19.125C24.243 20.8897 22.8872 22.374 21.2093 23.4116C19.5314 24.4493 17.5978 24.9993 15.625 25C13.9752 25.0043 12.3476 24.6189 10.875 23.875L3.75 26.25L6.125 19.125C5.38116 17.6524 4.9957 16.0249 5 14.375C5.00076 12.4022 5.55076 10.4686 6.5884 8.79072C7.62603 7.11285 9.11032 5.75699 10.875 4.87504C12.3476 4.1312 13.9752 3.74573 15.625 3.75004H16.25C18.8554 3.89378 21.3163 4.99349 23.1614 6.83861C25.0065 8.68373 26.1063 11.1446 26.25 13.75V14.375Z" stroke="#E30513" stroke-width="2" stroke-linecap="round" stroke-linejoin="round" />
	</symbol>
	<symbol id="message-white" viewBox="0 0 30 30" fill="none">
  	<path d="M26.25 14.375C26.2543 16.0249 25.8688 17.6524 25.125 19.125C24.243 20.8897 22.8872 22.374 21.2093 23.4116C19.5314 24.4493 17.5978 24.9993 15.625 25C13.9752 25.0043 12.3476 24.6189 10.875 23.875L3.75 26.25L6.125 19.125C5.38116 17.6524 4.9957 16.0249 5 14.375C5.00076 12.4022 5.55076 10.4686 6.5884 8.79072C7.62603 7.11285 9.11032 5.75699 10.875 4.87504C12.3476 4.1312 13.9752 3.74573 15.625 3.75004H16.25C18.8554 3.89378 21.3163 4.99349 23.1614 6.83861C25.0065 8.68373 26.1063 11.1446 26.25 13.75V14.375Z" stroke="#fff" stroke-width="2" stroke-linecap="round" stroke-linejoin="round" />
	</symbol>
	<symbol id="mail" viewBox="0 0 30 30" fill="none">
  	<path d="M15 20C17.7614 20 20 17.7614 20 15C20 12.2386 17.7614 10 15 10C12.2386 10 10 12.2386 10 15C10 17.7614 12.2386 20 15 20Z" stroke="#E30513" stroke-width="2" stroke-linecap="round" stroke-linejoin="round" />
  	<path d="M20 10.0002V16.2502C20 17.2448 20.3951 18.1986 21.0984 18.9019C21.8016 19.6051 22.7555 20.0002 23.75 20.0002C24.7446 20.0002 25.6984 19.6051 26.4017 18.9019C27.1049 18.1986 27.5 17.2448 27.5 16.2502V15.0002C27.4998 12.179 26.5453 9.4408 24.7916 7.23087C23.0379 5.02093 20.5882 3.46923 17.8408 2.82807C15.0934 2.18691 12.2099 2.494 9.6592 3.69941C7.10846 4.90482 5.04051 6.93765 3.79158 9.46735C2.54266 11.9971 2.18622 14.8749 2.78022 17.6328C3.37422 20.3908 4.88373 22.8667 7.0633 24.658C9.24287 26.4493 11.9643 27.4506 14.7851 27.4991C17.6059 27.5476 20.3601 26.6405 22.6 24.9252" stroke="#E30513" stroke-width="2" stroke-linecap="round" stroke-linejoin="round" />
	</symbol>
	
	<symbol id="phone" viewBox="0 0 30 30" fill="none">
  	<path d="M17.5626 7.5C18.7835 7.73821 19.9055 8.33532 20.7851 9.21492C21.6647 10.0945 22.2619 11.2166 22.5001 12.4375M17.5626 2.5C20.0992 2.7818 22.4646 3.91772 24.2704 5.72126C26.0762 7.5248 27.2151 9.88876 27.5001 12.425M23.125 26.25C12.4245 26.25 3.75 17.5755 3.75 6.875C3.75 6.39222 3.76766 5.91357 3.80236 5.43966C3.84219 4.89577 3.8621 4.62383 4.00463 4.37629C4.12267 4.17127 4.33188 3.97682 4.54497 3.87407C4.80226 3.75 5.10235 3.75 5.70252 3.75H9.22415C9.72885 3.75 9.9812 3.75 10.1975 3.83306C10.3886 3.90644 10.5588 4.02561 10.693 4.18012C10.845 4.35504 10.9313 4.5922 11.1037 5.06651L12.5614 9.07506C12.7621 9.62691 12.8624 9.90283 12.8454 10.1646C12.8303 10.3955 12.7516 10.6176 12.6178 10.8063C12.4661 11.0204 12.2143 11.1714 11.7108 11.4735L10 12.5C11.5024 15.8111 14.1877 18.4999 17.5 20L18.5265 18.2892C18.8286 17.7857 18.9796 17.5339 19.1937 17.3822C19.3824 17.2484 19.6045 17.1697 19.8354 17.1546C20.0972 17.1376 20.3731 17.2379 20.9249 17.4386L24.9335 18.8963C25.4078 19.0687 25.645 19.155 25.8199 19.307C25.9744 19.4412 26.0936 19.6114 26.1669 19.8025C26.25 20.0188 26.25 20.2712 26.25 20.7759V24.2975C26.25 24.8977 26.25 25.1977 26.1259 25.455C26.0232 25.6681 25.8287 25.8773 25.6237 25.9954C25.3762 26.1379 25.1042 26.1578 24.5603 26.1976C24.0864 26.2323 23.6078 26.25 23.125 26.25Z" stroke="#E30513" stroke-width="2" stroke-linecap="round" stroke-linejoin="round" />
	</symbol>
	<symbol id="search" viewBox="0 0 28 29" fill="none">
  	<path d="M12.8333 22.6667C17.988 22.6667 22.1667 18.488 22.1667 13.3333C22.1667 8.17868 17.988 4 12.8333 4C7.67868 4 3.5 8.17868 3.5 13.3333C3.5 18.488 7.67868 22.6667 12.8333 22.6667Z" stroke="#E30513" stroke-width="2" stroke-linecap="round" stroke-linejoin="round" />
  	<path d="M24.5008 24.9998L19.4258 19.9248" stroke="#E30513" stroke-width="2" stroke-linecap="round" stroke-linejoin="round" />
	</symbol>
	<symbol id="calc" viewBox="0 0 28 28" fill="none">
  	<path d="M5.83398 10.5H22.1673M17.5007 21V17.5M10.5007 21H10.5123M14.0007 21H14.0123M14.0007 17.5H14.0123M10.5007 17.5H10.5123M17.5007 14H17.5123M14.0007 14H14.0123M10.5007 14H10.5123M9.56732 24.5H18.434C19.7408 24.5 20.3942 24.5 20.8933 24.2457C21.3323 24.022 21.6893 23.665 21.913 23.226C22.1673 22.7269 22.1673 22.0735 22.1673 20.7667V7.23333C22.1673 5.92654 22.1673 5.27315 21.913 4.77402C21.6893 4.33498 21.3323 3.97802 20.8933 3.75432C20.3942 3.5 19.7408 3.5 18.434 3.5H9.56732C8.26053 3.5 7.60713 3.5 7.10801 3.75432C6.66896 3.97802 6.31201 4.33498 6.0883 4.77402C5.83398 5.27315 5.83398 5.92654 5.83398 7.23333V20.7667C5.83398 22.0735 5.83398 22.7269 6.0883 23.226C6.31201 23.665 6.66896 24.022 7.10801 24.2457C7.60713 24.5 8.26053 24.5 9.56732 24.5Z" stroke="white" stroke-width="1.5" stroke-linecap="round" stroke-linejoin="round" />
	</symbol>
	<symbol id="arrow-slider" viewBox="0 0 34 34" fill="none">
  	<path d="M12.75 25.5L21.25 17L12.75 8.5" stroke="black" stroke-width="2" stroke-linecap="round" stroke-linejoin="round" />
	</symbol>
	<symbol id="play" viewBox="0 0 25 34" fill="none">
  	 <path d="M0.5 0.75L24.25 17L0.5 33.25V0.75Z" fill="white" />
	</symbol>
	<symbol id="plus" viewBox="0 0 14 14" fill="none">
		<path d="M7 1V13" stroke-width="2" stroke-linecap="round" stroke-linejoin="round"></path>
		<path d="M1 7H13" stroke-width="2" stroke-linecap="round" stroke-linejoin="round"></path>
	</symbol>
	<symbol id="telegram" viewBox="0 0 36 36" fill="none">
		<g clip-path="url(#clip0_355_6032)">
  	  <path d="M18 36C27.9411 36 36 27.9411 36 18C36 8.05887 27.9411 0 18 0C8.05887 0 0 8.05887 0 18C0 27.9411 8.05887 36 18 36Z" fill="url(#paint0_linear_355_6032)" />
  	  <path d="M14.7008 26.25C14.1176 26.25 14.2167 26.0298 14.0156 25.4746L12.3008 19.8309L25.5008 12" fill="#C8DAEA" />
  	  <path d="M14.6992 26.2501C15.1492 26.2501 15.348 26.0443 15.5992 25.8001L17.9992 23.4664L15.0055 21.6611" fill="#A9C9DD" />
  	  <path d="M15.0061 21.6615L22.2601 27.0208C23.0879 27.4776 23.6853 27.2411 23.8915 26.2523L26.8442 12.3379C27.1465 11.1258 26.3822 10.5761 25.5903 10.9356L8.25182 17.6213C7.0683 18.096 7.0752 18.7563 8.03609 19.0505L12.4855 20.4392L22.7865 13.9405C23.2728 13.6456 23.7191 13.8041 23.3528 14.1292" fill="url(#paint1_linear_355_6032)" />
  	</g>
  	<defs>
  	  <linearGradient id="paint0_linear_355_6032" x1="384.019" y1="96.0192" x2="240.019" y2="432" gradientUnits="userSpaceOnUse">
  	    <stop stop-color="#37AEE2" />
  	    <stop offset="1" stop-color="#1E96C8" />
  	  </linearGradient>
  	  <linearGradient id="paint1_linear_355_6032" x1="213.944" y1="125.591" x2="259.014" y2="228.151" gradientUnits="userSpaceOnUse">
  	    <stop stop-color="#EFF7FC" />
  	    <stop offset="1" stop-color="white" />
  	  </linearGradient>
  	  <clipPath id="clip0_355_6032">
  	    <rect width="36" height="36" fill="white" />
  	  </clipPath>
  	</defs>
	</symbol>

	<symbol id="vk" viewBox="0 0 36 36" fill="none">
		<g clip-path="url(#clip0_355_6037)">
    	<path d="M35.4426 18C35.4426 8.21278 27.5085 0.278687 17.7213 0.278687C7.93409 0.278687 0 8.21278 0 18C0 27.7872 7.93409 35.7213 17.7213 35.7213C27.5085 35.7213 35.4426 27.7872 35.4426 18Z" fill="#0077FF" />
    	<path fill-rule="evenodd" clip-rule="evenodd" d="M28.0639 12.929C28.2137 12.4605 28.0639 12.1162 27.3511 12.1162H24.9939C24.3945 12.1162 24.1182 12.4136 23.9683 12.7416C23.9683 12.7416 22.7696 15.4824 21.0715 17.2629C20.5221 17.7782 20.2723 17.9422 19.9726 17.9422C19.8228 17.9422 19.6059 17.7782 19.6059 17.3097V12.929C19.6059 12.3668 19.432 12.1162 18.9325 12.1162H15.2283C14.8538 12.1162 14.6285 12.3772 14.6285 12.6245C14.6285 13.1575 15.4775 13.2804 15.565 14.7797V18.0359C15.565 18.7498 15.4276 18.8793 15.1279 18.8793C14.3288 18.8793 12.385 16.1261 11.2321 12.9758C11.0062 12.3635 10.7796 12.1162 10.1771 12.1162H7.81994C7.14643 12.1162 7.01172 12.4136 7.01172 12.7416C7.01172 13.3272 7.81088 16.2321 10.7327 20.074C12.6806 22.6977 15.425 24.1199 17.9222 24.1199C19.4206 24.1199 19.606 23.8041 19.606 23.26V21.277C19.606 20.6452 19.7479 20.5191 20.2224 20.5191C20.572 20.5191 21.1714 20.6831 22.5699 21.9481C24.1681 23.4473 24.4316 24.1199 25.3306 24.1199H27.6878C28.3613 24.1199 28.698 23.8041 28.5038 23.1807C28.2912 22.5594 27.5281 21.658 26.5156 20.5894C25.9661 19.9803 25.1421 19.3244 24.8923 18.9964C24.5427 18.5747 24.6426 18.3873 24.8923 18.0125C24.8923 18.0125 27.7642 14.2174 28.0639 12.929Z" fill="white" />
  	</g>
  	<defs>
	    <clipPath id="clip0_355_6037">
  	    <rect width="35.6129" height="36" fill="white" />
    	</clipPath>
  	</defs>
	</symbol>

	<symbol id="youtube" viewBox="0 0 37 36" fill="none">
		<g clip-path="url(#clip0_355_6040)">
			<path d="M18.6137 35.8681C28.4818 35.8681 36.4814 27.8685 36.4814 18.0005C36.4814 8.13243 28.4818 0.132812 18.6137 0.132812C8.74571 0.132812 0.746094 8.13243 0.746094 18.0005C0.746094 27.8685 8.74571 35.8681 18.6137 35.8681Z" fill="#E43535" />
			<path fill-rule="evenodd" clip-rule="evenodd" d="M24.3944 23.9568H13.4287C12.022 23.9568 10.8711 22.781 10.8711 21.3439V15.2535C10.8711 13.8164 12.022 12.6406 13.4287 12.6406H24.3944C25.8011 12.6406 26.952 13.8164 26.952 15.2535V21.3439C26.952 22.781 25.8011 23.9568 24.3944 23.9568ZM17.4513 16.1103V20.9432L21.8299 18.448L17.4513 16.1103Z" fill="white" />
		</g>
		<defs>
			<clipPath id="clip0_355_6040">
				<rect width="36" height="36" fill="white" transform="translate(0.613281)" />
			</clipPath>
  	</defs>
	</symbol>

	<symbol id="map-flag" viewBox="0 0 38 38" fill="none">
		<g filter="url(#filter0_d_355_6386)">
			<circle cx="19" cy="19" r="7" fill="#E30513" />
			<circle cx="19" cy="19" r="6.6" stroke="#E9676F" stroke-width="0.8" />
		</g>
		<defs>
			<filter id="filter0_d_355_6386" x="0.4" y="0.4" width="37.2" height="37.2" filterUnits="userSpaceOnUse" color-interpolation-filters="sRGB">
			  <feFlood flood-opacity="0" result="BackgroundImageFix" />
			  <feColorMatrix in="SourceAlpha" type="matrix" values="0 0 0 0 0 0 0 0 0 0 0 0 0 0 0 0 0 0 127 0" result="hardAlpha" />
			  <feOffset />
			  <feGaussianBlur stdDeviation="5.8" />
			  <feComposite in2="hardAlpha" operator="out" />
			  <feColorMatrix type="matrix" values="0 0 0 0 1 0 0 0 0 0.279167 0 0 0 0 0.324625 0 0 0 1 0" />
			  <feBlend mode="normal" in2="BackgroundImageFix" result="effect1_dropShadow_355_6386" />
			  <feBlend mode="normal" in="SourceGraphic" in2="effect1_dropShadow_355_6386" result="shape" />
			</filter>
		</defs>
	</symbol>
	<symbol id="map-flag-active" viewBox="0 0 44 44" fill="none">
		<g filter="url(#filter0_d_355_6388)">
    <circle cx="22" cy="22" r="7" fill="#E30513" />
    <circle cx="22" cy="22" r="6.6" stroke="#FFCACD" stroke-width="0.8" />
  </g>
  <defs>
    <filter id="filter0_d_355_6388" x="0.4" y="0.4" width="43.2" height="43.2" filterUnits="userSpaceOnUse" color-interpolation-filters="sRGB">
      <feFlood flood-opacity="0" result="BackgroundImageFix" />
      <feColorMatrix in="SourceAlpha" type="matrix" values="0 0 0 0 0 0 0 0 0 0 0 0 0 0 0 0 0 0 127 0" result="hardAlpha" />
      <feMorphology radius="3" operator="dilate" in="SourceAlpha" result="effect1_dropShadow_355_6388" />
      <feOffset />
      <feGaussianBlur stdDeviation="5.8" />
      <feComposite in2="hardAlpha" operator="out" />
      <feColorMatrix type="matrix" values="0 0 0 0 1 0 0 0 0 0.279167 0 0 0 0 0.324625 0 0 0 1 0" />
      <feBlend mode="normal" in2="BackgroundImageFix" result="effect1_dropShadow_355_6388" />
      <feBlend mode="normal" in="SourceGraphic" in2="effect1_dropShadow_355_6388" result="shape" />
    </filter>
  </defs>
	</symbol>

	<symbol id="power" viewBox="0 0 20 21" fill="none">
		<path d="M10.8333 2.1665L2.5 12.1665H10L9.16667 18.8332L17.5 8.83317H10L10.8333 2.1665Z" stroke="#0F8A0F" stroke-width="1.5" stroke-linecap="round" stroke-linejoin="round" />
	</symbol>

	<symbol id="award" viewBox="0 0 33 45" fill="none">
		  <path d="M13.6484 28.373L18.5491 44.825L22.5746 39.049L29.2258 41.4997L23.975 25.5723L13.6484 28.373Z" fill="#CD3414" />
  <g opacity="0.7">
    <path d="M16.4076 32.9555L15.8906 33.1133L19.1671 43.8502L19.6841 43.6925L16.4076 32.9555Z" fill="#FFCE45" />
  </g>
  <g opacity="0.7">
    <path d="M23.8827 28.1139L23.3672 28.2764L27.3933 41.0533L27.9088 40.8909L23.8827 28.1139Z" fill="#FFCE45" />
  </g>
  <path d="M7.69806 26.6221L2.44727 41.8493L9.62357 39.3986L13.2989 44.9995L19.425 28.722L7.69806 26.6221Z" fill="#FE5629" />
  <g opacity="0.7">
    <path d="M9.02132 26.0187L4.11914 41.0703L4.63307 41.2377L9.53524 26.1861L9.02132 26.0187Z" fill="#FFCE45" />
  </g>
  <g opacity="0.7">
    <path d="M17.7744 27.7614L12.1719 43.6885L12.6817 43.8678L18.2843 27.9408L17.7744 27.7614Z" fill="#FFCE45" />
  </g>
  <path d="M0 15.9459C0 15.2089 1.79346 14.61 1.89419 13.9019C1.99799 13.1759 0.445908 12.0974 0.64798 11.4082C0.853736 10.7074 2.74363 10.638 3.04336 9.98267C3.34309 9.32732 2.16382 7.84587 2.552 7.23904C2.94017 6.63221 4.77847 7.09409 5.25447 6.54745C5.73048 6.00081 5.00879 4.25157 5.55666 3.77618C6.10453 3.30079 7.73154 4.26324 8.34206 3.87015C8.95257 3.47707 8.74804 1.59762 9.41076 1.29543C10.0735 0.993244 11.3559 2.37703 12.0567 2.17128C12.7428 1.96982 13.0824 0.108797 13.8078 0.00438308C14.516 -0.0969598 15.363 1.5927 16.0994 1.5927C16.8358 1.5927 17.6822 -0.0969598 18.3904 0.00438308C19.1157 0.107569 19.4554 1.96982 20.1439 2.17005C20.8453 2.37581 22.1351 0.994472 22.7899 1.2942C23.4446 1.59393 23.2511 3.47768 23.8586 3.86893C24.466 4.26017 26.0973 3.30079 26.6446 3.77495C27.1918 4.24911 26.4714 5.99835 26.9462 6.54622C27.4209 7.09409 29.2531 6.62668 29.6486 7.23781C30.0442 7.84894 28.8569 9.31933 29.1573 9.98144C29.4576 10.6435 31.3469 10.7062 31.5526 11.407C31.7547 12.0961 30.2014 13.1747 30.3064 13.9006C30.4072 14.6088 32.2006 15.2089 32.2006 15.9447C32.2006 16.6805 30.4072 17.2806 30.3064 17.9888C30.2026 18.7141 31.7547 19.7933 31.5526 20.4818C31.3469 21.1832 29.457 21.2526 29.1573 21.9073C28.8575 22.5621 30.0368 24.0448 29.6486 24.6516C29.2605 25.2584 27.4222 24.7965 26.9462 25.3432C26.4701 25.8898 27.1918 27.6391 26.644 28.1138C26.0961 28.5886 24.4691 27.6274 23.8586 28.0205C23.2481 28.4136 23.4526 30.293 22.7899 30.5952C22.1271 30.8974 20.8447 29.5136 20.1439 29.7193C19.4554 29.9208 19.1157 31.7818 18.3904 31.885C17.6822 31.9864 16.8352 30.2967 16.0994 30.2967C15.3636 30.2967 14.516 31.9864 13.8078 31.885C13.0824 31.7818 12.7428 29.9196 12.0543 29.7193C11.3529 29.5136 10.063 30.8949 9.40831 30.5952C8.75357 30.2955 8.94704 28.4117 8.3396 28.0205C7.73216 27.6292 6.10084 28.588 5.5542 28.1138C5.00757 27.6397 5.7268 25.891 5.25202 25.3432C4.77724 24.7953 2.94509 25.2627 2.54954 24.6516C2.154 24.0405 3.34124 22.5701 3.0409 21.9073C2.74056 21.2446 0.851281 21.1832 0.645524 20.4818C0.443453 19.7933 1.99676 18.7141 1.89173 17.9888C1.79039 17.2818 0 16.6817 0 15.9459Z" fill="#FCAB28" />
  <path d="M16.0987 28.8986C23.252 28.8986 29.051 23.0997 29.051 15.9464C29.051 8.79305 23.252 2.99414 16.0987 2.99414C8.9454 2.99414 3.14648 8.79305 3.14648 15.9464C3.14648 23.0997 8.9454 28.8986 16.0987 28.8986Z" fill="#FFCE45" />
  <path d="M16.0986 29.1604C13.0413 29.1603 10.0786 28.1 7.71546 26.1604C5.35228 24.2207 3.73477 21.5217 3.13852 18.5231C2.54228 15.5245 3.00421 12.412 4.4456 9.71581C5.88699 7.01965 8.21865 4.90668 11.0433 3.73694C13.8679 2.5672 17.0108 2.41306 19.9363 3.30079C22.8619 4.18852 25.3891 6.0632 27.0874 8.60538C28.7857 11.1476 29.55 14.2 29.25 17.2425C28.9501 20.285 27.6044 23.1294 25.4424 25.291C24.2181 26.5217 22.7619 27.4974 21.158 28.1616C19.5541 28.8257 17.8345 29.1653 16.0986 29.1604ZM16.0986 3.25659C9.10159 3.25659 3.40858 8.94899 3.40858 15.9459C3.40858 22.9429 9.10159 28.6353 16.0986 28.6353C23.0955 28.6353 28.7879 22.9429 28.7879 15.9459C28.7879 8.94899 23.0931 3.25966 16.0986 3.25966V3.25659Z" fill="#FCAB28" />
  <path d="M16.0985 25.2224C21.2216 25.2224 25.3748 21.0693 25.3748 15.9462C25.3748 10.823 21.2216 6.66992 16.0985 6.66992C10.9754 6.66992 6.82227 10.823 6.82227 15.9462C6.82227 21.0693 10.9754 25.2224 16.0985 25.2224Z" fill="#FFD733" />
  <path d="M23.8012 12.2707C23.8007 11.691 23.746 11.1125 23.6379 10.543C22.4074 8.8255 20.6274 7.57963 18.5925 7.01152C16.5576 6.4434 14.3897 6.5871 12.4476 7.41883C10.5054 8.25056 8.90546 9.72047 7.91246 11.5853C6.91946 13.4501 6.59293 15.5981 6.98691 17.6738C8.13072 19.2708 9.75203 20.4633 11.6172 21.0796C13.4823 21.6958 15.495 21.704 17.365 21.1029C19.2351 20.5017 20.866 19.3223 22.0227 17.7347C23.1795 16.1471 23.8022 14.2332 23.8012 12.2689V12.2707Z" fill="#FFE266" />
  <path d="M16.0998 25.4934C10.8355 25.4934 6.55273 21.2106 6.55273 15.9469C6.55273 10.6832 10.8355 6.40039 16.0998 6.40039C21.3642 6.40039 25.6464 10.6826 25.6464 15.9469C25.6464 21.2112 21.3635 25.4934 16.0998 25.4934ZM16.0998 6.94089C11.1334 6.94089 7.09323 10.9805 7.09323 15.9469C7.09323 20.9133 11.1334 24.9529 16.0998 24.9529C21.0663 24.9529 25.1059 20.9127 25.1059 15.9469C25.1059 10.9811 21.0675 6.93966 16.0998 6.93966V6.94089Z" fill="#FCAB28" />
  <path d="M9.68908 8.22936L10.5066 6.16504L11.2713 8.25823L12.7036 9.07512L11.243 9.84041L10.4255 12.4655L9.66021 9.81154L8.22852 8.99466L9.68908 8.22936Z" fill="white" />
	</symbol>


	<symbol id="calendar" viewBox="0 0 21 21" fill="none">
		<path d="M6.125 8.75H14.875M6.125 12.25H10.5M6.125 2.625V4.375M14.875 2.625V4.375M5.425 18.375H15.575C16.5551 18.375 17.0452 18.375 17.4195 18.1842C17.7488 18.0165 18.0165 17.7488 18.1842 17.4195C18.375 17.0452 18.375 16.5551 18.375 15.575V7.175C18.375 6.1949 18.375 5.70486 18.1842 5.33052C18.0165 5.00123 17.7488 4.73351 17.4195 4.56574C17.0452 4.375 16.5551 4.375 15.575 4.375H5.425C4.44491 4.375 3.95486 4.375 3.58052 4.56574C3.25123 4.73351 2.98351 5.00123 2.81574 5.33052C2.625 5.70486 2.625 6.1949 2.625 7.175V15.575C2.625 16.5551 2.625 17.0452 2.81574 17.4195C2.98351 17.7488 3.25123 18.0165 3.58052 18.1842C3.95486 18.375 4.4449 18.375 5.425 18.375Z" stroke="#0F8A0F" stroke-width="1.6" stroke-linecap="round" stroke-linejoin="round" />
	</symbol>

	<symbol id="volt" viewBox="0 0 21 21" fill="none">
		<path d="M11.375 1.75L2.625 12.25H10.5L9.625 19.25L18.375 8.75H10.5L11.375 1.75Z" stroke="#0F8A0F" stroke-width="1.5" stroke-linecap="round" stroke-linejoin="round" />
	</symbol>

	<symbol id="arrow-news" viewBox="0 0 25 24" fill="none">
		<path d="M9.5 18L15.5 12L9.5 6" stroke="#E30513" stroke-width="2" stroke-linecap="round" stroke-linejoin="round" />
	</symbol>


</svg>

