<svg display="none" xmlns="http://www.w3.org/2000/svg">
	<symbol id="close" viewBox="0 0 15 15">
  	<path d="M12.0377 13.9229C12.5584 14.4436 13.4026 14.4436 13.9233 13.9229C14.444 13.4022 14.444 12.5579 13.9233 12.0372L9.20938 7.32335L13.9234 2.60935C14.4441 2.08865 14.4441 1.24443 13.9234 0.723732C13.4027 0.203034 12.5585 0.203033 12.0378 0.723732L7.32376 5.43773L2.60956 0.723532C2.08886 0.202833 1.24464 0.202833 0.723944 0.723532C0.203245 1.24423 0.203245 2.08845 0.723944 2.60915L5.43814 7.32335L0.724052 12.0374C0.203353 12.5581 0.203353 13.4024 0.724052 13.9231C1.24475 14.4438 2.08897 14.4438 2.60967 13.9231L7.32376 9.20897L12.0377 13.9229Z"/>
	</symbol>
	<symbol id="message" viewBox="0 0 30 30" fill="none">
  	<path d="M26.25 14.375C26.2543 16.0249 25.8688 17.6524 25.125 19.125C24.243 20.8897 22.8872 22.374 21.2093 23.4116C19.5314 24.4493 17.5978 24.9993 15.625 25C13.9752 25.0043 12.3476 24.6189 10.875 23.875L3.75 26.25L6.125 19.125C5.38116 17.6524 4.9957 16.0249 5 14.375C5.00076 12.4022 5.55076 10.4686 6.5884 8.79072C7.62603 7.11285 9.11032 5.75699 10.875 4.87504C12.3476 4.1312 13.9752 3.74573 15.625 3.75004H16.25C18.8554 3.89378 21.3163 4.99349 23.1614 6.83861C25.0065 8.68373 26.1063 11.1446 26.25 13.75V14.375Z" stroke="#E30513" stroke-width="2" stroke-linecap="round" stroke-linejoin="round" />
	</symbol>
	<symbol id="message-white" viewBox="0 0 30 30" fill="none">
  	<path d="M26.25 14.375C26.2543 16.0249 25.8688 17.6524 25.125 19.125C24.243 20.8897 22.8872 22.374 21.2093 23.4116C19.5314 24.4493 17.5978 24.9993 15.625 25C13.9752 25.0043 12.3476 24.6189 10.875 23.875L3.75 26.25L6.125 19.125C5.38116 17.6524 4.9957 16.0249 5 14.375C5.00076 12.4022 5.55076 10.4686 6.5884 8.79072C7.62603 7.11285 9.11032 5.75699 10.875 4.87504C12.3476 4.1312 13.9752 3.74573 15.625 3.75004H16.25C18.8554 3.89378 21.3163 4.99349 23.1614 6.83861C25.0065 8.68373 26.1063 11.1446 26.25 13.75V14.375Z" stroke="#fff" stroke-width="2" stroke-linecap="round" stroke-linejoin="round" />
	</symbol>
	<symbol id="mail" viewBox="0 0 30 30" fill="none">
  	<path d="M15 20C17.7614 20 20 17.7614 20 15C20 12.2386 17.7614 10 15 10C12.2386 10 10 12.2386 10 15C10 17.7614 12.2386 20 15 20Z" stroke="#E30513" stroke-width="2" stroke-linecap="round" stroke-linejoin="round" />
  	<path d="M20 10.0002V16.2502C20 17.2448 20.3951 18.1986 21.0984 18.9019C21.8016 19.6051 22.7555 20.0002 23.75 20.0002C24.7446 20.0002 25.6984 19.6051 26.4017 18.9019C27.1049 18.1986 27.5 17.2448 27.5 16.2502V15.0002C27.4998 12.179 26.5453 9.4408 24.7916 7.23087C23.0379 5.02093 20.5882 3.46923 17.8408 2.82807C15.0934 2.18691 12.2099 2.494 9.6592 3.69941C7.10846 4.90482 5.04051 6.93765 3.79158 9.46735C2.54266 11.9971 2.18622 14.8749 2.78022 17.6328C3.37422 20.3908 4.88373 22.8667 7.0633 24.658C9.24287 26.4493 11.9643 27.4506 14.7851 27.4991C17.6059 27.5476 20.3601 26.6405 22.6 24.9252" stroke="#E30513" stroke-width="2" stroke-linecap="round" stroke-linejoin="round" />
	</symbol>
	
	<symbol id="phone" viewBox="0 0 30 30" fill="none">
  	<path d="M17.5626 7.5C18.7835 7.73821 19.9055 8.33532 20.7851 9.21492C21.6647 10.0945 22.2619 11.2166 22.5001 12.4375M17.5626 2.5C20.0992 2.7818 22.4646 3.91772 24.2704 5.72126C26.0762 7.5248 27.2151 9.88876 27.5001 12.425M23.125 26.25C12.4245 26.25 3.75 17.5755 3.75 6.875C3.75 6.39222 3.76766 5.91357 3.80236 5.43966C3.84219 4.89577 3.8621 4.62383 4.00463 4.37629C4.12267 4.17127 4.33188 3.97682 4.54497 3.87407C4.80226 3.75 5.10235 3.75 5.70252 3.75H9.22415C9.72885 3.75 9.9812 3.75 10.1975 3.83306C10.3886 3.90644 10.5588 4.02561 10.693 4.18012C10.845 4.35504 10.9313 4.5922 11.1037 5.06651L12.5614 9.07506C12.7621 9.62691 12.8624 9.90283 12.8454 10.1646C12.8303 10.3955 12.7516 10.6176 12.6178 10.8063C12.4661 11.0204 12.2143 11.1714 11.7108 11.4735L10 12.5C11.5024 15.8111 14.1877 18.4999 17.5 20L18.5265 18.2892C18.8286 17.7857 18.9796 17.5339 19.1937 17.3822C19.3824 17.2484 19.6045 17.1697 19.8354 17.1546C20.0972 17.1376 20.3731 17.2379 20.9249 17.4386L24.9335 18.8963C25.4078 19.0687 25.645 19.155 25.8199 19.307C25.9744 19.4412 26.0936 19.6114 26.1669 19.8025C26.25 20.0188 26.25 20.2712 26.25 20.7759V24.2975C26.25 24.8977 26.25 25.1977 26.1259 25.455C26.0232 25.6681 25.8287 25.8773 25.6237 25.9954C25.3762 26.1379 25.1042 26.1578 24.5603 26.1976C24.0864 26.2323 23.6078 26.25 23.125 26.25Z" stroke="#E30513" stroke-width="2" stroke-linecap="round" stroke-linejoin="round" />
	</symbol>
	<symbol id="search" viewBox="0 0 28 29" fill="none">
  	<path d="M12.8333 22.6667C17.988 22.6667 22.1667 18.488 22.1667 13.3333C22.1667 8.17868 17.988 4 12.8333 4C7.67868 4 3.5 8.17868 3.5 13.3333C3.5 18.488 7.67868 22.6667 12.8333 22.6667Z" stroke="#E30513" stroke-width="2" stroke-linecap="round" stroke-linejoin="round" />
  	<path d="M24.5008 24.9998L19.4258 19.9248" stroke="#E30513" stroke-width="2" stroke-linecap="round" stroke-linejoin="round" />
	</symbol>
	<symbol id="calc" viewBox="0 0 28 28" fill="none">
  	<path d="M5.83398 10.5H22.1673M17.5007 21V17.5M10.5007 21H10.5123M14.0007 21H14.0123M14.0007 17.5H14.0123M10.5007 17.5H10.5123M17.5007 14H17.5123M14.0007 14H14.0123M10.5007 14H10.5123M9.56732 24.5H18.434C19.7408 24.5 20.3942 24.5 20.8933 24.2457C21.3323 24.022 21.6893 23.665 21.913 23.226C22.1673 22.7269 22.1673 22.0735 22.1673 20.7667V7.23333C22.1673 5.92654 22.1673 5.27315 21.913 4.77402C21.6893 4.33498 21.3323 3.97802 20.8933 3.75432C20.3942 3.5 19.7408 3.5 18.434 3.5H9.56732C8.26053 3.5 7.60713 3.5 7.10801 3.75432C6.66896 3.97802 6.31201 4.33498 6.0883 4.77402C5.83398 5.27315 5.83398 5.92654 5.83398 7.23333V20.7667C5.83398 22.0735 5.83398 22.7269 6.0883 23.226C6.31201 23.665 6.66896 24.022 7.10801 24.2457C7.60713 24.5 8.26053 24.5 9.56732 24.5Z" stroke="white" stroke-width="1.5" stroke-linecap="round" stroke-linejoin="round" />
	</symbol>
	<symbol id="arrow-slider" viewBox="0 0 34 34" fill="none">
  	<path d="M12.75 25.5L21.25 17L12.75 8.5" stroke="black" stroke-width="2" stroke-linecap="round" stroke-linejoin="round" />
	</symbol>
	<symbol id="play" viewBox="0 0 25 34" fill="none">
  	 <path d="M0.5 0.75L24.25 17L0.5 33.25V0.75Z" fill="white" />
	</symbol>
	<symbol id="plus" viewBox="0 0 14 14" fill="none">
		<path d="M7 1V13" stroke-width="2" stroke-linecap="round" stroke-linejoin="round"></path>
		<path d="M1 7H13" stroke-width="2" stroke-linecap="round" stroke-linejoin="round"></path>
	</symbol>
	<symbol id="telegram" viewBox="0 0 36 36" fill="none">
		<g clip-path="url(#clip0_355_6032)">
  	  <path d="M18 36C27.9411 36 36 27.9411 36 18C36 8.05887 27.9411 0 18 0C8.05887 0 0 8.05887 0 18C0 27.9411 8.05887 36 18 36Z" fill="url(#paint0_linear_355_6032)" />
  	  <path d="M14.7008 26.25C14.1176 26.25 14.2167 26.0298 14.0156 25.4746L12.3008 19.8309L25.5008 12" fill="#C8DAEA" />
  	  <path d="M14.6992 26.2501C15.1492 26.2501 15.348 26.0443 15.5992 25.8001L17.9992 23.4664L15.0055 21.6611" fill="#A9C9DD" />
  	  <path d="M15.0061 21.6615L22.2601 27.0208C23.0879 27.4776 23.6853 27.2411 23.8915 26.2523L26.8442 12.3379C27.1465 11.1258 26.3822 10.5761 25.5903 10.9356L8.25182 17.6213C7.0683 18.096 7.0752 18.7563 8.03609 19.0505L12.4855 20.4392L22.7865 13.9405C23.2728 13.6456 23.7191 13.8041 23.3528 14.1292" fill="url(#paint1_linear_355_6032)" />
  	</g>
  	<defs>
  	  <linearGradient id="paint0_linear_355_6032" x1="384.019" y1="96.0192" x2="240.019" y2="432" gradientUnits="userSpaceOnUse">
  	    <stop stop-color="#37AEE2" />
  	    <stop offset="1" stop-color="#1E96C8" />
  	  </linearGradient>
  	  <linearGradient id="paint1_linear_355_6032" x1="213.944" y1="125.591" x2="259.014" y2="228.151" gradientUnits="userSpaceOnUse">
  	    <stop stop-color="#EFF7FC" />
  	    <stop offset="1" stop-color="white" />
  	  </linearGradient>
  	  <clipPath id="clip0_355_6032">
  	    <rect width="36" height="36" fill="white" />
  	  </clipPath>
  	</defs>
	</symbol>

	<symbol id="vk" viewBox="0 0 36 36" fill="none">
		<g clip-path="url(#clip0_355_6037)">
    	<path d="M35.4426 18C35.4426 8.21278 27.5085 0.278687 17.7213 0.278687C7.93409 0.278687 0 8.21278 0 18C0 27.7872 7.93409 35.7213 17.7213 35.7213C27.5085 35.7213 35.4426 27.7872 35.4426 18Z" fill="#0077FF" />
    	<path fill-rule="evenodd" clip-rule="evenodd" d="M28.0639 12.929C28.2137 12.4605 28.0639 12.1162 27.3511 12.1162H24.9939C24.3945 12.1162 24.1182 12.4136 23.9683 12.7416C23.9683 12.7416 22.7696 15.4824 21.0715 17.2629C20.5221 17.7782 20.2723 17.9422 19.9726 17.9422C19.8228 17.9422 19.6059 17.7782 19.6059 17.3097V12.929C19.6059 12.3668 19.432 12.1162 18.9325 12.1162H15.2283C14.8538 12.1162 14.6285 12.3772 14.6285 12.6245C14.6285 13.1575 15.4775 13.2804 15.565 14.7797V18.0359C15.565 18.7498 15.4276 18.8793 15.1279 18.8793C14.3288 18.8793 12.385 16.1261 11.2321 12.9758C11.0062 12.3635 10.7796 12.1162 10.1771 12.1162H7.81994C7.14643 12.1162 7.01172 12.4136 7.01172 12.7416C7.01172 13.3272 7.81088 16.2321 10.7327 20.074C12.6806 22.6977 15.425 24.1199 17.9222 24.1199C19.4206 24.1199 19.606 23.8041 19.606 23.26V21.277C19.606 20.6452 19.7479 20.5191 20.2224 20.5191C20.572 20.5191 21.1714 20.6831 22.5699 21.9481C24.1681 23.4473 24.4316 24.1199 25.3306 24.1199H27.6878C28.3613 24.1199 28.698 23.8041 28.5038 23.1807C28.2912 22.5594 27.5281 21.658 26.5156 20.5894C25.9661 19.9803 25.1421 19.3244 24.8923 18.9964C24.5427 18.5747 24.6426 18.3873 24.8923 18.0125C24.8923 18.0125 27.7642 14.2174 28.0639 12.929Z" fill="white" />
  	</g>
  	<defs>
	    <clipPath id="clip0_355_6037">
  	    <rect width="35.6129" height="36" fill="white" />
    	</clipPath>
  	</defs>
	</symbol>

	<symbol id="youtube" viewBox="0 0 37 36" fill="none">
		<g clip-path="url(#clip0_355_6040)">
			<path d="M18.6137 35.8681C28.4818 35.8681 36.4814 27.8685 36.4814 18.0005C36.4814 8.13243 28.4818 0.132812 18.6137 0.132812C8.74571 0.132812 0.746094 8.13243 0.746094 18.0005C0.746094 27.8685 8.74571 35.8681 18.6137 35.8681Z" fill="#E43535" />
			<path fill-rule="evenodd" clip-rule="evenodd" d="M24.3944 23.9568H13.4287C12.022 23.9568 10.8711 22.781 10.8711 21.3439V15.2535C10.8711 13.8164 12.022 12.6406 13.4287 12.6406H24.3944C25.8011 12.6406 26.952 13.8164 26.952 15.2535V21.3439C26.952 22.781 25.8011 23.9568 24.3944 23.9568ZM17.4513 16.1103V20.9432L21.8299 18.448L17.4513 16.1103Z" fill="white" />
		</g>
		<defs>
			<clipPath id="clip0_355_6040">
				<rect width="36" height="36" fill="white" transform="translate(0.613281)" />
			</clipPath>
  	</defs>
	</symbol>

	<symbol id="map-flag" viewBox="0 0 38 38" fill="none">
		<g filter="url(#filter0_d_355_6386)">
			<circle cx="19" cy="19" r="7" fill="#E30513" />
			<circle cx="19" cy="19" r="6.6" stroke="#E9676F" stroke-width="0.8" />
		</g>
		<defs>
			<filter id="filter0_d_355_6386" x="0.4" y="0.4" width="37.2" height="37.2" filterUnits="userSpaceOnUse" color-interpolation-filters="sRGB">
			  <feFlood flood-opacity="0" result="BackgroundImageFix" />
			  <feColorMatrix in="SourceAlpha" type="matrix" values="0 0 0 0 0 0 0 0 0 0 0 0 0 0 0 0 0 0 127 0" result="hardAlpha" />
			  <feOffset />
			  <feGaussianBlur stdDeviation="5.8" />
			  <feComposite in2="hardAlpha" operator="out" />
			  <feColorMatrix type="matrix" values="0 0 0 0 1 0 0 0 0 0.279167 0 0 0 0 0.324625 0 0 0 1 0" />
			  <feBlend mode="normal" in2="BackgroundImageFix" result="effect1_dropShadow_355_6386" />
			  <feBlend mode="normal" in="SourceGraphic" in2="effect1_dropShadow_355_6386" result="shape" />
			</filter>
		</defs>
	</symbol>
	<symbol id="map-flag-active" viewBox="0 0 44 44" fill="none">
		<g filter="url(#filter0_d_355_6388)">
    <circle cx="22" cy="22" r="7" fill="#E30513" />
    <circle cx="22" cy="22" r="6.6" stroke="#FFCACD" stroke-width="0.8" />
  </g>
  <defs>
    <filter id="filter0_d_355_6388" x="0.4" y="0.4" width="43.2" height="43.2" filterUnits="userSpaceOnUse" color-interpolation-filters="sRGB">
      <feFlood flood-opacity="0" result="BackgroundImageFix" />
      <feColorMatrix in="SourceAlpha" type="matrix" values="0 0 0 0 0 0 0 0 0 0 0 0 0 0 0 0 0 0 127 0" result="hardAlpha" />
      <feMorphology radius="3" operator="dilate" in="SourceAlpha" result="effect1_dropShadow_355_6388" />
      <feOffset />
      <feGaussianBlur stdDeviation="5.8" />
      <feComposite in2="hardAlpha" operator="out" />
      <feColorMatrix type="matrix" values="0 0 0 0 1 0 0 0 0 0.279167 0 0 0 0 0.324625 0 0 0 1 0" />
      <feBlend mode="normal" in2="BackgroundImageFix" result="effect1_dropShadow_355_6388" />
      <feBlend mode="normal" in="SourceGraphic" in2="effect1_dropShadow_355_6388" result="shape" />
    </filter>
  </defs>
	</symbol>

	<symbol id="power" viewBox="0 0 20 21" fill="none">
		<path d="M10.8333 2.1665L2.5 12.1665H10L9.16667 18.8332L17.5 8.83317H10L10.8333 2.1665Z" stroke="#0F8A0F" stroke-width="1.5" stroke-linecap="round" stroke-linejoin="round" />
	</symbol>

	<symbol id="award" viewBox="0 0 33 45" fill="none">
		  <path d="M13.6484 28.373L18.5491 44.825L22.5746 39.049L29.2258 41.4997L23.975 25.5723L13.6484 28.373Z" fill="#CD3414" />
  <g opacity="0.7">
    <path d="M16.4076 32.9555L15.8906 33.1133L19.1671 43.8502L19.6841 43.6925L16.4076 32.9555Z" fill="#FFCE45" />
  </g>
  <g opacity="0.7">
    <path d="M23.8827 28.1139L23.3672 28.2764L27.3933 41.0533L27.9088 40.8909L23.8827 28.1139Z" fill="#FFCE45" />
  </g>
  <path d="M7.69806 26.6221L2.44727 41.8493L9.62357 39.3986L13.2989 44.9995L19.425 28.722L7.69806 26.6221Z" fill="#FE5629" />
  <g opacity="0.7">
    <path d="M9.02132 26.0187L4.11914 41.0703L4.63307 41.2377L9.53524 26.1861L9.02132 26.0187Z" fill="#FFCE45" />
  </g>
  <g opacity="0.7">
    <path d="M17.7744 27.7614L12.1719 43.6885L12.6817 43.8678L18.2843 27.9408L17.7744 27.7614Z" fill="#FFCE45" />
  </g>
  <path d="M0 15.9459C0 15.2089 1.79346 14.61 1.89419 13.9019C1.99799 13.1759 0.445908 12.0974 0.64798 11.4082C0.853736 10.7074 2.74363 10.638 3.04336 9.98267C3.34309 9.32732 2.16382 7.84587 2.552 7.23904C2.94017 6.63221 4.77847 7.09409 5.25447 6.54745C5.73048 6.00081 5.00879 4.25157 5.55666 3.77618C6.10453 3.30079 7.73154 4.26324 8.34206 3.87015C8.95257 3.47707 8.74804 1.59762 9.41076 1.29543C10.0735 0.993244 11.3559 2.37703 12.0567 2.17128C12.7428 1.96982 13.0824 0.108797 13.8078 0.00438308C14.516 -0.0969598 15.363 1.5927 16.0994 1.5927C16.8358 1.5927 17.6822 -0.0969598 18.3904 0.00438308C19.1157 0.107569 19.4554 1.96982 20.1439 2.17005C20.8453 2.37581 22.1351 0.994472 22.7899 1.2942C23.4446 1.59393 23.2511 3.47768 23.8586 3.86893C24.466 4.26017 26.0973 3.30079 26.6446 3.77495C27.1918 4.24911 26.4714 5.99835 26.9462 6.54622C27.4209 7.09409 29.2531 6.62668 29.6486 7.23781C30.0442 7.84894 28.8569 9.31933 29.1573 9.98144C29.4576 10.6435 31.3469 10.7062 31.5526 11.407C31.7547 12.0961 30.2014 13.1747 30.3064 13.9006C30.4072 14.6088 32.2006 15.2089 32.2006 15.9447C32.2006 16.6805 30.4072 17.2806 30.3064 17.9888C30.2026 18.7141 31.7547 19.7933 31.5526 20.4818C31.3469 21.1832 29.457 21.2526 29.1573 21.9073C28.8575 22.5621 30.0368 24.0448 29.6486 24.6516C29.2605 25.2584 27.4222 24.7965 26.9462 25.3432C26.4701 25.8898 27.1918 27.6391 26.644 28.1138C26.0961 28.5886 24.4691 27.6274 23.8586 28.0205C23.2481 28.4136 23.4526 30.293 22.7899 30.5952C22.1271 30.8974 20.8447 29.5136 20.1439 29.7193C19.4554 29.9208 19.1157 31.7818 18.3904 31.885C17.6822 31.9864 16.8352 30.2967 16.0994 30.2967C15.3636 30.2967 14.516 31.9864 13.8078 31.885C13.0824 31.7818 12.7428 29.9196 12.0543 29.7193C11.3529 29.5136 10.063 30.8949 9.40831 30.5952C8.75357 30.2955 8.94704 28.4117 8.3396 28.0205C7.73216 27.6292 6.10084 28.588 5.5542 28.1138C5.00757 27.6397 5.7268 25.891 5.25202 25.3432C4.77724 24.7953 2.94509 25.2627 2.54954 24.6516C2.154 24.0405 3.34124 22.5701 3.0409 21.9073C2.74056 21.2446 0.851281 21.1832 0.645524 20.4818C0.443453 19.7933 1.99676 18.7141 1.89173 17.9888C1.79039 17.2818 0 16.6817 0 15.9459Z" fill="#FCAB28" />
  <path d="M16.0987 28.8986C23.252 28.8986 29.051 23.0997 29.051 15.9464C29.051 8.79305 23.252 2.99414 16.0987 2.99414C8.9454 2.99414 3.14648 8.79305 3.14648 15.9464C3.14648 23.0997 8.9454 28.8986 16.0987 28.8986Z" fill="#FFCE45" />
  <path d="M16.0986 29.1604C13.0413 29.1603 10.0786 28.1 7.71546 26.1604C5.35228 24.2207 3.73477 21.5217 3.13852 18.5231C2.54228 15.5245 3.00421 12.412 4.4456 9.71581C5.88699 7.01965 8.21865 4.90668 11.0433 3.73694C13.8679 2.5672 17.0108 2.41306 19.9363 3.30079C22.8619 4.18852 25.3891 6.0632 27.0874 8.60538C28.7857 11.1476 29.55 14.2 29.25 17.2425C28.9501 20.285 27.6044 23.1294 25.4424 25.291C24.2181 26.5217 22.7619 27.4974 21.158 28.1616C19.5541 28.8257 17.8345 29.1653 16.0986 29.1604ZM16.0986 3.25659C9.10159 3.25659 3.40858 8.94899 3.40858 15.9459C3.40858 22.9429 9.10159 28.6353 16.0986 28.6353C23.0955 28.6353 28.7879 22.9429 28.7879 15.9459C28.7879 8.94899 23.0931 3.25966 16.0986 3.25966V3.25659Z" fill="#FCAB28" />
  <path d="M16.0985 25.2224C21.2216 25.2224 25.3748 21.0693 25.3748 15.9462C25.3748 10.823 21.2216 6.66992 16.0985 6.66992C10.9754 6.66992 6.82227 10.823 6.82227 15.9462C6.82227 21.0693 10.9754 25.2224 16.0985 25.2224Z" fill="#FFD733" />
  <path d="M23.8012 12.2707C23.8007 11.691 23.746 11.1125 23.6379 10.543C22.4074 8.8255 20.6274 7.57963 18.5925 7.01152C16.5576 6.4434 14.3897 6.5871 12.4476 7.41883C10.5054 8.25056 8.90546 9.72047 7.91246 11.5853C6.91946 13.4501 6.59293 15.5981 6.98691 17.6738C8.13072 19.2708 9.75203 20.4633 11.6172 21.0796C13.4823 21.6958 15.495 21.704 17.365 21.1029C19.2351 20.5017 20.866 19.3223 22.0227 17.7347C23.1795 16.1471 23.8022 14.2332 23.8012 12.2689V12.2707Z" fill="#FFE266" />
  <path d="M16.0998 25.4934C10.8355 25.4934 6.55273 21.2106 6.55273 15.9469C6.55273 10.6832 10.8355 6.40039 16.0998 6.40039C21.3642 6.40039 25.6464 10.6826 25.6464 15.9469C25.6464 21.2112 21.3635 25.4934 16.0998 25.4934ZM16.0998 6.94089C11.1334 6.94089 7.09323 10.9805 7.09323 15.9469C7.09323 20.9133 11.1334 24.9529 16.0998 24.9529C21.0663 24.9529 25.1059 20.9127 25.1059 15.9469C25.1059 10.9811 21.0675 6.93966 16.0998 6.93966V6.94089Z" fill="#FCAB28" />
  <path d="M9.68908 8.22936L10.5066 6.16504L11.2713 8.25823L12.7036 9.07512L11.243 9.84041L10.4255 12.4655L9.66021 9.81154L8.22852 8.99466L9.68908 8.22936Z" fill="white" />
	</symbol>


	<symbol id="calendar" viewBox="0 0 21 21" fill="none">
		<path d="M6.125 8.75H14.875M6.125 12.25H10.5M6.125 2.625V4.375M14.875 2.625V4.375M5.425 18.375H15.575C16.5551 18.375 17.0452 18.375 17.4195 18.1842C17.7488 18.0165 18.0165 17.7488 18.1842 17.4195C18.375 17.0452 18.375 16.5551 18.375 15.575V7.175C18.375 6.1949 18.375 5.70486 18.1842 5.33052C18.0165 5.00123 17.7488 4.73351 17.4195 4.56574C17.0452 4.375 16.5551 4.375 15.575 4.375H5.425C4.44491 4.375 3.95486 4.375 3.58052 4.56574C3.25123 4.73351 2.98351 5.00123 2.81574 5.33052C2.625 5.70486 2.625 6.1949 2.625 7.175V15.575C2.625 16.5551 2.625 17.0452 2.81574 17.4195C2.98351 17.7488 3.25123 18.0165 3.58052 18.1842C3.95486 18.375 4.4449 18.375 5.425 18.375Z" stroke="#0F8A0F" stroke-width="1.6" stroke-linecap="round" stroke-linejoin="round" />
	</symbol>

	<symbol id="volt" viewBox="0 0 21 21" fill="none">
		<path d="M11.375 1.75L2.625 12.25H10.5L9.625 19.25L18.375 8.75H10.5L11.375 1.75Z" stroke="#0F8A0F" stroke-width="1.5" stroke-linecap="round" stroke-linejoin="round" />
	</symbol>

	<symbol id="arrow-news" viewBox="0 0 25 24" fill="none">
		<path d="M9.5 18L15.5 12L9.5 6" stroke="#E30513" stroke-width="2" stroke-linecap="round" stroke-linejoin="round" />
	</symbol>


	<symbol id="steps-01" viewBox="0 0 50 62" fill="none">
		<path d="M14.9993 47.6667H34.9993M14.9993 34.3333H34.9993M14.9993 21H18.3327M28.3327 1H12.3327C8.599 1 6.73216 1 5.30608 1.72662C4.05167 2.36578 3.03179 3.38565 2.39264 4.64006C1.66602 6.06614 1.66602 7.93298 1.66602 11.6667V50.3333C1.66602 54.067 1.66602 55.9339 2.39264 57.3599C3.03179 58.6144 4.05167 59.6342 5.30608 60.2734C6.73216 61 8.599 61 12.3327 61H37.666C41.3997 61 43.2665 61 44.6926 60.2734C45.947 59.6342 46.9669 58.6144 47.6061 57.3599C48.3327 55.9339 48.3327 54.067 48.3327 50.3333V21M28.3327 1L48.3327 21M28.3327 1V15.6667C28.3327 17.5335 28.3327 18.4669 28.696 19.18C29.0156 19.8072 29.5255 20.3171 30.1527 20.6367C30.8658 21 31.7992 21 33.666 21H48.3327" stroke="#E30513" stroke-width="2" stroke-linecap="round" stroke-linejoin="round"/>
	</symbol>
	<symbol id="steps-02" viewBox="0 0 95 80" fill="none">
		<path d="M93.25 55.5C93.25 56.9808 92.6618 58.4009 91.6147 59.448C90.5676 60.4951 89.1475 61.0833 87.6667 61.0833H54.1667L43 72.25V27.5833C43 26.1025 43.5882 24.6824 44.6353 23.6353C45.6824 22.5882 47.1025 22 48.5833 22H87.6667C89.1475 22 90.5676 22.5882 91.6147 23.6353C92.6618 24.6824 93.25 26.1025 93.25 27.5833V55.5Z" stroke="#E30513" stroke-width="2" stroke-linecap="round" stroke-linejoin="round"/>
		<path d="M1.625 35.125C1.625 36.1196 2.02009 37.0734 2.72335 37.7766C3.42661 38.4799 4.38044 38.875 5.375 38.875H27.875L35.375 46.375V16.375C35.375 15.3804 34.9799 14.4266 34.2767 13.7233C33.5734 13.0201 32.6196 12.625 31.625 12.625H5.375C4.38044 12.625 3.42661 13.0201 2.72335 13.7233C2.02009 14.4266 1.625 15.3804 1.625 16.375V35.125Z" stroke="#E30513" stroke-width="2" stroke-linecap="round" stroke-linejoin="round"/>
	</symbol>
	<symbol id="steps-03" viewBox="0 0 56 62" fill="none">
		<path d="M14.6673 14.3333H28.0007M38.0007 41H41.334M14.6673 27.6667H41.334M14.6673 44.3333L18.0007 47.6667L24.6673 41M12.0007 61H44.0007C47.7343 61 49.6012 61 51.0273 60.2734C52.2817 59.6342 53.3015 58.6144 53.9407 57.3599C54.6673 55.9339 54.6673 54.067 54.6673 50.3333V11.6667C54.6673 7.93298 54.6673 6.06614 53.9407 4.64006C53.3015 3.38565 52.2817 2.36578 51.0273 1.72662C49.6012 1 47.7343 1 44.0007 1H12.0007C8.26697 1 6.40013 1 4.97405 1.72662C3.71963 2.36578 2.69976 3.38565 2.06061 4.64006C1.33398 6.06614 1.33398 7.93298 1.33398 11.6667V50.3333C1.33398 54.067 1.33398 55.9339 2.06061 57.3599C2.69976 58.6144 3.71963 59.6342 4.97405 60.2734C6.40013 61 8.26697 61 12.0007 61Z" stroke="#E30513" stroke-width="2" stroke-linecap="round" stroke-linejoin="round"/>
	</symbol>
	<symbol id="steps-04" viewBox="0 0 67 65" fill="none">
		<path fill-rule="evenodd" clip-rule="evenodd" d="M1.56811 9.29312V42.8558C1.91069 42.3436 2.30302 41.8673 2.73946 41.435C4.48551 39.6864 6.85585 38.7034 9.33122 38.7034H15.6274V1.56623H9.33122C5.05456 1.58 1.59075 5.03063 1.56811 9.29312ZM57.1175 51.4634C57.659 51.21 58.1397 50.8411 58.5265 50.3812C59.1398 49.6515 59.4769 48.729 59.4769 47.7736V10.2593C59.4714 8.01512 57.6452 6.19506 55.3937 6.18956H17.1966V8.52181H51.4621C54.5839 8.52456 57.1145 11.0468 57.12 14.161V51.4632L57.1175 51.4634ZM17.1969 4.62594H55.3939C58.513 4.63145 61.0409 7.15091 61.0464 10.2597V16.2128H61.3448H61.342C64.4666 16.2156 66.9972 18.7405 67 21.8521V59.3608C66.9972 62.4723 64.4666 64.9973 61.342 65H19.2169C14.6917 64.9835 10.824 61.7453 10.0283 57.3067H9.33214C4.19632 57.2929 0.0332407 53.1571 0 48.0407V9.26809C0.033153 4.14928 4.19653 0.0133932 9.33214 0H16.4159H16.4132C16.6231 0 16.822 0.0826078 16.9685 0.231293C17.1149 0.37723 17.1978 0.578241 17.1978 0.784757L17.1969 4.62594ZM61.0463 17.7766H61.3446H61.3419C63.5962 17.7822 65.4223 19.6022 65.4279 21.8491V59.3606C65.4223 61.6075 63.5962 63.4276 61.3419 63.4331H19.2168C15.5562 63.4221 12.3957 60.8723 11.6223 57.3065H51.463C53.9909 57.3009 56.2121 55.6268 56.9028 53.2009C59.3477 52.5208 61.0413 50.3042 61.0468 47.7737L61.0463 17.7766ZM34.5329 25.6652C38.0028 25.6652 40.9893 28.1076 41.6662 31.5C42.3431 34.8896 40.5225 38.2874 37.3178 39.6092C34.1103 40.9336 30.4139 39.8157 28.4885 36.941C26.5601 34.0663 26.9387 30.2334 29.3919 27.7885C30.7539 26.4282 32.6046 25.6625 34.5329 25.6652ZM38.5665 28.8951C40.4893 30.8116 40.7876 33.8157 39.2765 36.0711C37.7653 38.3262 34.8672 39.2046 32.3531 38.1665C29.8391 37.1284 28.4108 34.4658 28.9412 31.8086C29.4717 29.1487 31.8144 27.2322 34.5329 27.2322C36.0468 27.2295 37.4973 27.8295 38.5665 28.8951ZM36.2734 22.2591C36.3231 22.5757 36.5607 22.8263 36.8702 22.8979C37.9752 23.154 39.0278 23.589 39.9893 24.1893C40.2572 24.3545 40.5998 24.3435 40.8568 24.1617L42.7934 22.7877L44.6969 24.6849L43.3432 26.5794C43.136 26.8382 43.1166 27.1961 43.2907 27.477C43.8902 28.4297 44.3267 29.476 44.5808 30.5692C44.6471 30.8858 44.9013 31.1309 45.2218 31.1832L47.5618 31.577V34.2589L45.2273 34.6527V34.6499C44.9124 34.6995 44.6582 34.9335 44.5864 35.2447C44.4593 35.7926 44.2852 36.3296 44.0697 36.8472C43.8515 37.3704 43.5918 37.8715 43.2906 38.3506C43.1249 38.6177 43.1359 38.9592 43.3183 39.2153L44.6968 41.1455L42.7933 43.0427L40.8898 41.6934C40.6302 41.4897 40.271 41.4677 39.9892 41.6411C39.0333 42.2386 37.9863 42.6709 36.8895 42.927C36.5718 42.9931 36.3259 43.2464 36.2734 43.5658L35.8784 45.8981H33.1875L32.7924 43.5713H32.7952C32.7455 43.2574 32.5107 43.0041 32.1985 42.9325C31.0961 42.6764 30.0408 42.2414 29.0822 41.6411C28.8142 41.4759 28.4716 41.4869 28.2147 41.6687L26.278 43.0427L24.3745 41.1455L25.7255 39.251C25.93 38.9922 25.9521 38.6343 25.7752 38.3534C25.1785 37.4007 24.742 36.3571 24.4851 35.264C24.4215 34.9473 24.1674 34.7022 23.8469 34.6499L21.5069 34.2562V31.5715L23.8414 31.1777V31.1805C24.1563 31.1309 24.4105 30.8969 24.4823 30.5857C24.7365 29.487 25.1758 28.4352 25.7753 27.4798C25.9438 27.2127 25.9327 26.8712 25.7504 26.6151L24.3718 24.6849L26.2753 22.7877L28.1788 24.137V24.1397C28.4385 24.3435 28.7976 24.3627 29.0794 24.1893C30.0353 23.5945 31.0823 23.1595 32.1791 22.9034C32.4968 22.8373 32.7427 22.584 32.7952 22.2673L33.1903 19.9351H35.8811L36.2734 22.2618L36.2734 22.2591ZM37.3563 19.2715L37.7348 21.5074C38.6521 21.7634 39.5361 22.1269 40.365 22.595L42.2215 21.2788C42.6497 20.9704 43.2409 21.02 43.6167 21.3945L46.0976 23.8671L46.0948 23.8644C46.4705 24.2389 46.5202 24.8281 46.2108 25.255L44.8903 27.1026C45.3599 27.9287 45.7246 28.8098 45.9815 29.724L48.2249 30.1012C48.747 30.1866 49.131 30.6354 49.1338 31.1641V34.661C49.1338 35.1897 48.7498 35.6385 48.2277 35.7266L45.9844 36.1039V36.1011C45.7274 37.0181 45.36 37.8992 44.8903 38.7253L46.2109 40.5757C46.5203 41.0025 46.4706 41.5917 46.0949 41.9662L43.614 44.4389C43.4344 44.6179 43.194 44.7308 42.9371 44.75C42.6829 44.7721 42.4288 44.7005 42.2188 44.5518L40.3623 43.2356L40.3651 43.2383C39.5335 43.7037 38.6522 44.0699 37.7322 44.3233L37.3537 46.5591H37.3565C37.2681 47.0796 36.8177 47.4623 36.2873 47.4623H32.7787C32.2511 47.4623 31.8008 47.0795 31.7124 46.5591L31.3339 44.3233C30.4166 44.0699 29.5353 43.7037 28.7037 43.2383L26.8472 44.5545L26.85 44.5518C26.419 44.8602 25.8278 44.8106 25.4548 44.4389L22.9739 41.9662C22.5982 41.5917 22.5485 41.0025 22.8579 40.5757L24.1785 38.7253C23.7088 37.8992 23.3441 37.0181 23.0872 36.1039L20.8439 35.7266C20.3217 35.6413 19.9377 35.1897 19.9377 34.661V31.1641C19.9377 30.6354 20.3217 30.1866 20.8439 30.1012L23.0872 29.724C23.3413 28.8098 23.7088 27.9287 24.1757 27.1026L22.8551 25.2522C22.5457 24.8226 22.5927 24.2334 22.9684 23.8616L25.4493 21.389C25.8222 21.0145 26.4135 20.9677 26.8445 21.2761L28.701 22.5923L28.6982 22.5895C29.5298 22.1242 30.4111 21.7579 31.3283 21.5018L31.7068 19.266V19.2687C31.7952 18.7483 32.2483 18.3656 32.776 18.3656H36.2846C36.815 18.3656 37.2653 18.7483 37.3537 19.2687L37.3563 19.2715ZM1.56819 47.9935C1.59029 43.731 5.05471 40.2812 9.33165 40.2671H16.4154H16.4127C16.8464 40.2671 17.1973 39.9174 17.1973 39.485V10.0856H51.4628C53.7144 10.0911 55.5405 11.9111 55.546 14.158V51.6695C55.5405 53.9164 53.7144 55.7365 51.4628 55.7392H9.332C5.05534 55.7255 1.59117 52.278 1.56853 48.0156L1.56819 47.9935Z" fill="#E30513"/>
	</symbol>
	<symbol id="steps-05" viewBox="0 0 56 66" fill="none">
		<path d="M34 23.4667C34 28.6933 29.6778 30 27.5167 30C23.6267 30 20.4995 25.1829 22.7623 22.0667C24.4566 19.7333 24.4911 18.3333 22.7623 16C26.6522 16 27.5167 16.4667 29.6778 20.6667C31.0609 19.1733 31.4067 16.9333 31.4067 16C32.6688 16.9333 34 18.24 34 23.4667Z" stroke="#E72431" stroke-width="2"/>
<rect x="1" y="1" width="54" height="64" rx="5" stroke="#E72431" stroke-width="2"/>
<circle cx="28" cy="52" r="6" stroke="#E72431" stroke-width="2"/>
<rect x="12" y="11" width="33" height="22" rx="3" stroke="#E72431" stroke-width="2"/>
	</symbol>
	<symbol id="steps-06" viewBox="0 0 59 65" fill="none">
		<path d="M57.625 44.9999V19.9999C57.6239 18.9039 57.3346 17.8275 56.7861 16.8786C56.2376 15.9297 55.4492 15.1417 54.5 14.5937L32.625 2.09369C31.6749 1.54514 30.5971 1.25635 29.5 1.25635C28.4029 1.25635 27.3251 1.54514 26.375 2.09369L4.5 14.5937C3.55082 15.1417 2.76244 15.9297 2.21394 16.8786C1.66545 17.8275 1.37612 18.9039 1.375 19.9999V44.9999C1.37612 46.096 1.66545 47.1724 2.21394 48.1213C2.76244 49.0702 3.55082 49.8582 4.5 50.4062L26.375 62.9062C27.3251 63.4547 28.4029 63.7435 29.5 63.7435C30.5971 63.7435 31.6749 63.4547 32.625 62.9062L54.5 50.4062C55.4492 49.8582 56.2376 49.0702 56.7861 48.1213C57.3346 47.1724 57.6239 46.096 57.625 44.9999Z" stroke="#E30513" stroke-width="2" stroke-linecap="round" stroke-linejoin="round"/>
<path d="M2.21875 16.75L29.5 32.5313L56.7812 16.75" stroke="#E30513" stroke-width="2" stroke-linecap="round" stroke-linejoin="round"/>
<path d="M29.5 64V32.5" stroke="#E30513" stroke-width="2" stroke-linecap="round" stroke-linejoin="round"/>
	</symbol>
	<symbol id="steps-07" viewBox="0 0 66 65" fill="none">
		<path d="M65.11 31.59L47.3 13.78V1.3C47.3 0.52 46.78 0 46 0C45.22 0 44.7 0.52 44.7 1.3V18.2H21.3V1.3C21.3 0.52 20.78 0 20 0C19.22 0 18.7 0.52 18.7 1.3V13.78L0.89 31.59C0.76 31.72 0.63 31.85 0.63 31.98C0.5 32.11 0.5 32.37 0.5 32.5V63.7C0.5 64.48 1.02 65 1.8 65H64.2C64.98 65 65.5 64.48 65.5 63.7V32.5C65.5 32.37 65.5 32.11 65.37 31.98C65.37 31.85 65.24 31.72 65.11 31.59ZM61.08 31.2H47.3V19.5V17.42L61.08 31.2ZM44.7 53.3H21.3V20.8H44.7V53.3ZM18.7 19.5V31.2H4.92L18.7 17.42V19.5ZM62.9 62.4H3.1V33.8H18.7V54.6C18.7 55.38 19.22 55.9 20 55.9H46C46.78 55.9 47.3 55.38 47.3 54.6V33.8H62.9V62.4Z" fill="#E30513"/>
<path d="M36.8996 28.6H42.0996C42.8796 28.6 43.3996 28.08 43.3996 27.3C43.3996 26.52 42.8796 26 42.0996 26H36.8996C36.1196 26 35.5996 26.52 35.5996 27.3C35.5996 28.08 36.1196 28.6 36.8996 28.6Z" fill="#E30513"/>
<path d="M23.8996 28.6H29.0996C29.8796 28.6 30.3996 28.08 30.3996 27.3C30.3996 26.52 29.8796 26 29.0996 26H23.8996C23.1196 26 22.5996 26.52 22.5996 27.3C22.5996 28.08 23.1196 28.6 23.8996 28.6Z" fill="#E30513"/>
<path d="M36.8996 36.3998H42.0996C42.8796 36.3998 43.3996 35.8798 43.3996 35.0998C43.3996 34.3198 42.8796 33.7998 42.0996 33.7998H36.8996C36.1196 33.7998 35.5996 34.3198 35.5996 35.0998C35.5996 35.8798 36.1196 36.3998 36.8996 36.3998Z" fill="#E30513"/>
<path d="M23.8996 36.3998H29.0996C29.8796 36.3998 30.3996 35.8798 30.3996 35.0998C30.3996 34.3198 29.8796 33.7998 29.0996 33.7998H23.8996C23.1196 33.7998 22.5996 34.3198 22.5996 35.0998C22.5996 35.8798 23.1196 36.3998 23.8996 36.3998Z" fill="#E30513"/>
<path d="M36.8996 44.2001H42.0996C42.8796 44.2001 43.3996 43.6801 43.3996 42.9001C43.3996 42.1201 42.8796 41.6001 42.0996 41.6001H36.8996C36.1196 41.6001 35.5996 42.1201 35.5996 42.9001C35.5996 43.6801 36.1196 44.2001 36.8996 44.2001Z" fill="#E30513"/>
<path d="M23.8996 44.2001H29.0996C29.8796 44.2001 30.3996 43.6801 30.3996 42.9001C30.3996 42.1201 29.8796 41.6001 29.0996 41.6001H23.8996C23.1196 41.6001 22.5996 42.1201 22.5996 42.9001C22.5996 43.6801 23.1196 44.2001 23.8996 44.2001Z" fill="#E30513"/>
<path d="M36.8996 51.9999H42.0996C42.8796 51.9999 43.3996 51.4799 43.3996 50.6999C43.3996 49.9199 42.8796 49.3999 42.0996 49.3999H36.8996C36.1196 49.3999 35.5996 49.9199 35.5996 50.6999C35.5996 51.4799 36.1196 51.9999 36.8996 51.9999Z" fill="#E30513"/>
<path d="M23.8996 51.9999H29.0996C29.8796 51.9999 30.3996 51.4799 30.3996 50.6999C30.3996 49.9199 29.8796 49.3999 29.0996 49.3999H23.8996C23.1196 49.3999 22.5996 49.9199 22.5996 50.6999C22.5996 51.4799 23.1196 51.9999 23.8996 51.9999Z" fill="#E30513"/>
	</symbol>
	<symbol id="steps-08" viewBox="0 0 74 65" fill="none">
		<path d="M1.23675 29.3732C0.746719 29.746 0.537212 30.3923 0.728965 30.9747L2.57541 36.6278C2.76716 37.2173 3.30335 37.6185 3.92834 37.6292L6.88272 37.6576L8.99197 40.5658L8.11134 43.3853C7.93024 43.9748 8.13974 44.614 8.63687 44.9761L13.4449 48.4774C13.9456 48.8325 14.6274 48.8396 15.1281 48.488L17.5463 46.7694L20.9552 47.888L21.9104 50.6861C22.1022 51.2684 22.6561 51.6661 23.274 51.6661H27.9541L27.4889 48.7827H24.2966L23.4409 46.2651C23.2953 45.8284 22.9579 45.5017 22.5318 45.3668L17.7416 43.8043C17.3049 43.6694 16.8326 43.7404 16.4597 44.0032L14.2972 45.5407L11.1617 43.2575L11.9607 40.7292C12.0956 40.2854 12.0139 39.8202 11.7512 39.458L8.78614 35.378C8.52338 35.0158 8.09371 34.7956 7.63921 34.7885L4.99371 34.7601L3.79351 31.0778L5.90985 29.4976C6.27205 29.2242 6.4922 28.7981 6.4922 28.3436V23.3083C6.4922 22.8431 6.27559 22.4277 5.90985 22.1543L3.79351 20.5741L4.99371 16.8846L7.63921 16.8562C8.09373 16.8562 8.51984 16.6396 8.78614 16.2739L11.7512 12.1938C12.0246 11.8316 12.0956 11.3487 11.9607 10.9226L11.1617 8.39441L14.2972 6.11117L16.4597 7.64872C16.8325 7.90439 17.3687 7.9683 17.8055 7.82272L22.5424 6.28517C22.9792 6.13958 23.3059 5.80224 23.4515 5.37613L24.3073 2.86563H28.1884L29.0336 5.37613C29.1791 5.81289 29.5236 6.13958 29.9532 6.28517L34.7434 7.84045C35.1802 7.98604 35.6418 7.90436 36.0146 7.64869L38.1771 6.11114L41.3126 8.39438L40.5207 10.9226C40.3858 11.3594 40.503 11.8956 40.7658 12.2578L43.6846 16.2775C43.958 16.6397 44.377 16.8599 44.8386 16.8599L47.4841 16.8883L48.0558 18.6602L50.9392 18.195L49.9024 15.0133C49.7106 14.431 49.1673 14.0227 48.5494 14.0227L45.5844 13.9872L43.4858 11.086L44.3664 8.25948C44.5475 7.67713 44.338 7.03082 43.8409 6.66865L39.0223 3.17812C38.5216 2.81592 37.8504 2.81592 37.3391 3.16746L34.9316 4.8861L31.512 3.77816L30.5746 0.980038C30.3758 0.397678 29.8289 0 29.2111 0H23.2561C22.6382 0 22.0843 0.390606 21.8925 0.980038L20.9373 3.77816L17.5284 4.8861L15.1102 3.16746C14.6095 2.81236 13.9277 2.81237 13.427 3.17812L8.619 6.66865C8.11832 7.03085 7.90881 7.67714 8.09346 8.25948L8.9741 11.086L6.86485 13.9872L3.91046 14.0227C3.28194 14.0227 2.7458 14.4239 2.55754 15.0133L0.711094 20.6771C0.51934 21.2595 0.728848 21.9058 1.21887 22.268L3.60156 24.0328V27.6228L1.21887 29.3876L1.23675 29.3732Z" fill="#E30513"/>
<path d="M26.2362 14.2465C32.1912 14.2465 37.0984 18.7634 37.7338 24.5551L39.0867 24.8924L40.5604 23.994C39.662 16.8957 33.5792 11.3774 26.243 11.3774C18.2782 11.3774 11.791 17.8579 11.791 25.823C11.791 33.7878 18.2821 40.275 26.243 40.275C26.6158 40.275 26.9887 40.2465 27.3686 40.2217L29.9963 38.6415L30.4331 36.8341L30.3052 36.653C29.0411 37.1252 27.6776 37.3987 26.2429 37.3987C19.8619 37.3987 14.6708 32.2072 14.6708 25.8266C14.6708 19.4459 19.8623 14.2645 26.2429 14.2645L26.2362 14.2465Z" fill="#E30513"/>
<path d="M66.6582 26.845L61.4418 23.0526C60.9695 22.7081 60.3411 22.6797 59.8404 22.9993L57.4399 24.4978L53.786 23.6171L52.3301 21.1989C52.0212 20.6911 51.4495 20.4248 50.8742 20.5171L44.5003 21.5256C43.9179 21.625 43.4563 22.0511 43.3178 22.6157L42.6715 25.3784L39.4722 27.3314L36.7167 26.6496C36.1521 26.504 35.552 26.7206 35.2075 27.1964L31.415 32.4128C31.0706 32.8957 31.0422 33.5207 31.3618 34.0213L32.8603 36.4217L31.9796 40.0756L29.5614 41.5316C29.0536 41.8405 28.7802 42.4122 28.8796 42.9875L29.8881 49.3614C29.9875 49.9331 30.4136 50.4053 30.9782 50.5439L33.7337 51.1902L35.6974 54.3895L35.0156 57.1344C34.87 57.7061 35.0866 58.3062 35.5625 58.6542L40.7788 62.4466C41.2618 62.7911 41.8868 62.8088 42.3874 62.4999L44.7878 61.0014L48.4417 61.8821L49.8976 64.3003C50.1604 64.7442 50.6255 64.9998 51.1263 64.9998C51.1973 64.9998 51.2825 64.9892 51.3535 64.9821L57.7274 63.9736C58.2992 63.8742 58.7714 63.4481 58.9099 62.8835L59.5562 60.1208L62.7556 58.1678L65.5004 58.8496C66.065 58.9845 66.6723 58.7786 67.0203 58.2956L70.8127 53.0793C71.1571 52.607 71.1749 51.9785 70.8659 51.4778L69.3675 49.0774L70.2481 45.4235L72.6663 43.9676C73.167 43.6587 73.4298 43.087 73.3481 42.5117L72.3396 36.1378C72.2402 35.5554 71.8141 35.0938 71.2495 34.9553L68.4868 34.309L66.5339 31.1096L67.2156 28.3542C67.3506 27.7896 67.1446 27.1895 66.6617 26.845L66.6582 26.845ZM67.2583 36.9726L69.6587 37.5266L70.3689 41.9901L68.2596 43.2542C67.9329 43.4531 67.695 43.7798 67.6063 44.1526L66.4416 48.9784C66.3422 49.3512 66.4132 49.7525 66.6156 50.0685L67.9259 52.16L65.2698 55.8068L62.88 55.2244C62.5178 55.125 62.1165 55.1889 61.7899 55.3878L57.5535 57.98C57.2269 58.1789 56.9996 58.5056 56.9002 58.8784L56.3462 61.2788L51.8934 61.989L50.6222 59.8798C50.4304 59.5531 50.1037 59.3152 49.7309 59.2264L44.9051 58.0617C44.7951 58.0333 44.6885 58.0262 44.5678 58.0262C44.2944 58.0262 44.0423 58.0901 43.815 58.2357L41.7235 59.546L38.0767 56.9005L38.659 54.5001C38.7585 54.1273 38.6945 53.7367 38.4957 53.41L35.8964 49.1737C35.7046 48.847 35.3779 48.6197 35.0051 48.5274L32.6047 47.9628L31.8945 43.51L34.0037 42.2388C34.3304 42.047 34.5683 41.7203 34.6571 41.3475L35.8218 36.5217C35.9141 36.1489 35.8502 35.7583 35.6407 35.4316L34.341 33.3401L36.9865 29.6933L39.3763 30.2756C39.7491 30.3751 40.1575 30.3111 40.477 30.1123L44.7134 27.5201C45.0401 27.3212 45.2673 26.9945 45.3596 26.6217L45.9136 24.2213L50.3772 23.5111L51.6413 25.6203C51.8401 25.947 52.1668 26.1849 52.5397 26.2737L57.3654 27.4384C57.7382 27.5307 58.1288 27.4668 58.4555 27.2573L60.547 25.9576L64.1938 28.6031L63.6115 30.9929C63.5121 31.3657 63.576 31.767 63.7748 32.0936L66.367 36.3299C66.5659 36.6566 66.8926 36.8839 67.2654 36.9762L67.2583 36.9726Z" fill="#E30513"/>
<path d="M49.3864 31.7912C46.4604 32.2564 43.886 33.8259 42.1425 36.2263C40.406 38.6268 39.6959 41.5528 40.1681 44.4787C41.031 49.9436 45.7502 53.85 51.123 53.85C51.6947 53.85 52.277 53.8039 52.8594 53.7044C55.7854 53.2392 58.3599 51.6697 60.1034 49.2693C61.8398 46.8689 62.55 43.9429 62.0777 41.0169C61.1154 34.9733 55.4231 30.8358 49.3864 31.7912ZM57.7667 47.5822C56.4848 49.3541 54.5673 50.5188 52.4048 50.8633C47.9306 51.5735 43.7157 48.509 43.0053 44.0277C42.6609 41.8546 43.1793 39.6921 44.479 37.9094C45.7609 36.1375 47.6783 34.9728 49.8338 34.6283C50.2776 34.5644 50.6967 34.5183 51.1334 34.5183C55.0963 34.5183 58.5975 37.4087 59.2438 41.4532C59.5883 43.6158 59.0627 45.7889 57.7702 47.5715L57.7667 47.5822Z" fill="#E30513"/>
	</symbol>


		<symbol id="contact-central-01" viewBox="0 0 68 69" fill="none">
  <rect x="1" y="19" width="26" height="49" rx="1" fill="white" stroke="#E30513" stroke-width="2" />
  <rect x="12" y="8" width="26" height="11" rx="1" fill="white" stroke="#E30513" stroke-width="2" />
  <rect x="25" y="1" width="42" height="67" rx="4" fill="white" stroke="#E30513" stroke-width="2" />
  <rect x="39" y="52" width="15" height="16" rx="1" fill="white" stroke="#E30513" stroke-width="2" />
  <path d="M37 31C37 31.5523 37.4477 32 38 32C38.5523 32 39 31.5523 39 31L37 31ZM37 18L37 31L39 31L39 18L37 18Z" fill="#E30513" />
  <path d="M7 41C7 41.5523 7.44771 42 8 42C8.55228 42 9 41.5523 9 41L7 41ZM7 32L7 41L9 41L9 32L7 32Z" fill="#E30513" />
  <path d="M17 41C17 41.5523 17.4477 42 18 42C18.5523 42 19 41.5523 19 41L17 41ZM17 32L17 41L19 41L19 32L17 32Z" fill="#E30513" />
  <path d="M55 31C55 31.5523 55.4477 32 56 32C56.5523 32 57 31.5523 57 31L55 31ZM55 18L55 31L57 31L57 18L55 18Z" fill="#E30513" />
	</symbol>
		<symbol id="contact-central-02" viewBox="0 0 68 68" fill="none">
  <circle cx="34" cy="34" r="33" fill="white" stroke="#E30513" stroke-width="2" />
  <path d="M34.4197 36.0989H33.4197V36.6056L33.8284 36.9053L34.4197 36.0989ZM46.421 46.1398L47.2274 46.7312L48.4101 45.1184L47.6037 44.527L46.421 46.1398ZM33.4197 7.55566V36.0989H35.4197V7.55566H33.4197ZM33.8284 36.9053L46.421 46.1398L47.6037 44.527L35.0111 35.2925L33.8284 36.9053Z" fill="#E30513" />
	</symbol>
		<symbol id="contact-central-03" viewBox="0 0 81 81" fill="none">
  <path d="M47.4189 20.25C50.7154 20.8932 53.745 22.5054 56.1199 24.8803C58.4948 27.2552 60.107 30.2848 60.7502 33.5812M47.4189 6.75C54.2677 7.51085 60.6543 10.5778 65.53 15.4474C70.4057 20.317 73.4807 26.6997 74.2502 33.5475M62.4375 70.875C33.5461 70.875 10.125 47.4539 10.125 18.5625C10.125 17.259 10.1727 15.9666 10.2664 14.6871C10.3739 13.2186 10.4277 12.4843 10.8125 11.816C11.1312 11.2624 11.6961 10.7374 12.2714 10.46C12.9661 10.125 13.7763 10.125 15.3968 10.125H24.9052C26.2679 10.125 26.9492 10.125 27.5333 10.3493C28.0493 10.5474 28.5087 10.8692 28.8712 11.2863C29.2815 11.7586 29.5144 12.3989 29.9801 13.6796L33.9157 24.5027C34.4576 25.9927 34.7285 26.7376 34.6825 27.4445C34.6419 28.0677 34.4292 28.6675 34.068 29.1771C33.6584 29.755 32.9786 30.1628 31.6191 30.9785L27 33.75C31.0564 42.6899 38.3067 49.9497 47.25 54L50.0215 49.3809C50.8372 48.0214 51.245 47.3416 51.8229 46.932C52.3325 46.5708 52.9323 46.3581 53.5555 46.3175C54.2624 46.2715 55.0074 46.5424 56.4973 47.0843L67.3204 51.0199C68.6011 51.4856 69.2414 51.7185 69.7137 52.1288C70.1308 52.4913 70.4526 52.9507 70.6507 53.4667C70.875 54.0508 70.875 54.7321 70.875 56.0948V65.6032C70.875 67.2237 70.875 68.0339 70.54 68.7286C70.2626 69.3039 69.7376 69.8688 69.184 70.1875C68.5157 70.5723 67.7814 70.6261 66.3129 70.7336C65.0334 70.8273 63.741 70.875 62.4375 70.875Z" stroke="#E30513" stroke-width="2" stroke-linecap="round" stroke-linejoin="round" />
	</symbol>
		<symbol id="contact-central-04" viewBox="0 0 80 80" fill="none">
  <path d="M26.6667 23.3333H40M50 50H53.3334M26.6667 36.6667H53.3334M26.6667 53.3333L30 56.6667L36.6667 50M24 70H56C59.7337 70 61.6006 70 63.0266 69.2734C64.2811 68.6342 65.3009 67.6144 65.9401 66.3599C66.6667 64.9339 66.6667 63.067 66.6667 59.3333V20.6667C66.6667 16.933 66.6667 15.0661 65.9401 13.6401C65.3009 12.3856 64.2811 11.3658 63.0266 10.7266C61.6006 10 59.7337 10 56 10H24C20.2664 10 18.3995 10 16.9734 10.7266C15.719 11.3658 14.6992 12.3856 14.06 13.6401C13.3334 15.0661 13.3334 16.933 13.3334 20.6667V59.3333C13.3334 63.067 13.3334 64.9339 14.06 66.3599C14.6992 67.6144 15.719 68.6342 16.9734 69.2734C18.3995 70 20.2664 70 24 70Z" stroke="#E30513" stroke-width="2" stroke-linecap="round" stroke-linejoin="round" />
	</symbol>


</svg>

