<svg width="50" height="62" viewBox="0 0 50 62" fill="none" xmlns="http://www.w3.org/2000/svg">
<path d="M14.9993 47.6667H34.9993M14.9993 34.3333H34.9993M14.9993 21H18.3327M28.3327 1H12.3327C8.599 1 6.73216 1 5.30608 1.72662C4.05167 2.36578 3.03179 3.38565 2.39264 4.64006C1.66602 6.06614 1.66602 7.93298 1.66602 11.6667V50.3333C1.66602 54.067 1.66602 55.9339 2.39264 57.3599C3.03179 58.6144 4.05167 59.6342 5.30608 60.2734C6.73216 61 8.599 61 12.3327 61H37.666C41.3997 61 43.2665 61 44.6926 60.2734C45.947 59.6342 46.9669 58.6144 47.6061 57.3599C48.3327 55.9339 48.3327 54.067 48.3327 50.3333V21M28.3327 1L48.3327 21M28.3327 1V15.6667C28.3327 17.5335 28.3327 18.4669 28.696 19.18C29.0156 19.8072 29.5255 20.3171 30.1527 20.6367C30.8658 21 31.7992 21 33.666 21H48.3327" stroke="#E30513" stroke-width="2" stroke-linecap="round" stroke-linejoin="round"/>
</svg>
