<svg width="95" height="80" viewBox="0 0 95 80" fill="none" xmlns="http://www.w3.org/2000/svg">
<path d="M93.25 55.5C93.25 56.9808 92.6618 58.4009 91.6147 59.448C90.5676 60.4951 89.1475 61.0833 87.6667 61.0833H54.1667L43 72.25V27.5833C43 26.1025 43.5882 24.6824 44.6353 23.6353C45.6824 22.5882 47.1025 22 48.5833 22H87.6667C89.1475 22 90.5676 22.5882 91.6147 23.6353C92.6618 24.6824 93.25 26.1025 93.25 27.5833V55.5Z" stroke="#E30513" stroke-width="2" stroke-linecap="round" stroke-linejoin="round"/>
<path d="M1.625 35.125C1.625 36.1196 2.02009 37.0734 2.72335 37.7766C3.42661 38.4799 4.38044 38.875 5.375 38.875H27.875L35.375 46.375V16.375C35.375 15.3804 34.9799 14.4266 34.2767 13.7233C33.5734 13.0201 32.6196 12.625 31.625 12.625H5.375C4.38044 12.625 3.42661 13.0201 2.72335 13.7233C2.02009 14.4266 1.625 15.3804 1.625 16.375V35.125Z" stroke="#E30513" stroke-width="2" stroke-linecap="round" stroke-linejoin="round"/>
</svg>
