<svg width="67" height="65" viewBox="0 0 67 65" fill="none" xmlns="http://www.w3.org/2000/svg">
<path fill-rule="evenodd" clip-rule="evenodd" d="M1.56811 9.29312V42.8558C1.91069 42.3436 2.30302 41.8673 2.73946 41.435C4.48551 39.6864 6.85585 38.7034 9.33122 38.7034H15.6274V1.56623H9.33122C5.05456 1.58 1.59075 5.03063 1.56811 9.29312ZM57.1175 51.4634C57.659 51.21 58.1397 50.8411 58.5265 50.3812C59.1398 49.6515 59.4769 48.729 59.4769 47.7736V10.2593C59.4714 8.01512 57.6452 6.19506 55.3937 6.18956H17.1966V8.52181H51.4621C54.5839 8.52456 57.1145 11.0468 57.12 14.161V51.4632L57.1175 51.4634ZM17.1969 4.62594H55.3939C58.513 4.63145 61.0409 7.15091 61.0464 10.2597V16.2128H61.3448H61.342C64.4666 16.2156 66.9972 18.7405 67 21.8521V59.3608C66.9972 62.4723 64.4666 64.9973 61.342 65H19.2169C14.6917 64.9835 10.824 61.7453 10.0283 57.3067H9.33214C4.19632 57.2929 0.0332407 53.1571 0 48.0407V9.26809C0.033153 4.14928 4.19653 0.0133932 9.33214 0H16.4159H16.4132C16.6231 0 16.822 0.0826078 16.9685 0.231293C17.1149 0.37723 17.1978 0.578241 17.1978 0.784757L17.1969 4.62594ZM61.0463 17.7766H61.3446H61.3419C63.5962 17.7822 65.4223 19.6022 65.4279 21.8491V59.3606C65.4223 61.6075 63.5962 63.4276 61.3419 63.4331H19.2168C15.5562 63.4221 12.3957 60.8723 11.6223 57.3065H51.463C53.9909 57.3009 56.2121 55.6268 56.9028 53.2009C59.3477 52.5208 61.0413 50.3042 61.0468 47.7737L61.0463 17.7766ZM34.5329 25.6652C38.0028 25.6652 40.9893 28.1076 41.6662 31.5C42.3431 34.8896 40.5225 38.2874 37.3178 39.6092C34.1103 40.9336 30.4139 39.8157 28.4885 36.941C26.5601 34.0663 26.9387 30.2334 29.3919 27.7885C30.7539 26.4282 32.6046 25.6625 34.5329 25.6652ZM38.5665 28.8951C40.4893 30.8116 40.7876 33.8157 39.2765 36.0711C37.7653 38.3262 34.8672 39.2046 32.3531 38.1665C29.8391 37.1284 28.4108 34.4658 28.9412 31.8086C29.4717 29.1487 31.8144 27.2322 34.5329 27.2322C36.0468 27.2295 37.4973 27.8295 38.5665 28.8951ZM36.2734 22.2591C36.3231 22.5757 36.5607 22.8263 36.8702 22.8979C37.9752 23.154 39.0278 23.589 39.9893 24.1893C40.2572 24.3545 40.5998 24.3435 40.8568 24.1617L42.7934 22.7877L44.6969 24.6849L43.3432 26.5794C43.136 26.8382 43.1166 27.1961 43.2907 27.477C43.8902 28.4297 44.3267 29.476 44.5808 30.5692C44.6471 30.8858 44.9013 31.1309 45.2218 31.1832L47.5618 31.577V34.2589L45.2273 34.6527V34.6499C44.9124 34.6995 44.6582 34.9335 44.5864 35.2447C44.4593 35.7926 44.2852 36.3296 44.0697 36.8472C43.8515 37.3704 43.5918 37.8715 43.2906 38.3506C43.1249 38.6177 43.1359 38.9592 43.3183 39.2153L44.6968 41.1455L42.7933 43.0427L40.8898 41.6934C40.6302 41.4897 40.271 41.4677 39.9892 41.6411C39.0333 42.2386 37.9863 42.6709 36.8895 42.927C36.5718 42.9931 36.3259 43.2464 36.2734 43.5658L35.8784 45.8981H33.1875L32.7924 43.5713H32.7952C32.7455 43.2574 32.5107 43.0041 32.1985 42.9325C31.0961 42.6764 30.0408 42.2414 29.0822 41.6411C28.8142 41.4759 28.4716 41.4869 28.2147 41.6687L26.278 43.0427L24.3745 41.1455L25.7255 39.251C25.93 38.9922 25.9521 38.6343 25.7752 38.3534C25.1785 37.4007 24.742 36.3571 24.4851 35.264C24.4215 34.9473 24.1674 34.7022 23.8469 34.6499L21.5069 34.2562V31.5715L23.8414 31.1777V31.1805C24.1563 31.1309 24.4105 30.8969 24.4823 30.5857C24.7365 29.487 25.1758 28.4352 25.7753 27.4798C25.9438 27.2127 25.9327 26.8712 25.7504 26.6151L24.3718 24.6849L26.2753 22.7877L28.1788 24.137V24.1397C28.4385 24.3435 28.7976 24.3627 29.0794 24.1893C30.0353 23.5945 31.0823 23.1595 32.1791 22.9034C32.4968 22.8373 32.7427 22.584 32.7952 22.2673L33.1903 19.9351H35.8811L36.2734 22.2618L36.2734 22.2591ZM37.3563 19.2715L37.7348 21.5074C38.6521 21.7634 39.5361 22.1269 40.365 22.595L42.2215 21.2788C42.6497 20.9704 43.2409 21.02 43.6167 21.3945L46.0976 23.8671L46.0948 23.8644C46.4705 24.2389 46.5202 24.8281 46.2108 25.255L44.8903 27.1026C45.3599 27.9287 45.7246 28.8098 45.9815 29.724L48.2249 30.1012C48.747 30.1866 49.131 30.6354 49.1338 31.1641V34.661C49.1338 35.1897 48.7498 35.6385 48.2277 35.7266L45.9844 36.1039V36.1011C45.7274 37.0181 45.36 37.8992 44.8903 38.7253L46.2109 40.5757C46.5203 41.0025 46.4706 41.5917 46.0949 41.9662L43.614 44.4389C43.4344 44.6179 43.194 44.7308 42.9371 44.75C42.6829 44.7721 42.4288 44.7005 42.2188 44.5518L40.3623 43.2356L40.3651 43.2383C39.5335 43.7037 38.6522 44.0699 37.7322 44.3233L37.3537 46.5591H37.3565C37.2681 47.0796 36.8177 47.4623 36.2873 47.4623H32.7787C32.2511 47.4623 31.8008 47.0795 31.7124 46.5591L31.3339 44.3233C30.4166 44.0699 29.5353 43.7037 28.7037 43.2383L26.8472 44.5545L26.85 44.5518C26.419 44.8602 25.8278 44.8106 25.4548 44.4389L22.9739 41.9662C22.5982 41.5917 22.5485 41.0025 22.8579 40.5757L24.1785 38.7253C23.7088 37.8992 23.3441 37.0181 23.0872 36.1039L20.8439 35.7266C20.3217 35.6413 19.9377 35.1897 19.9377 34.661V31.1641C19.9377 30.6354 20.3217 30.1866 20.8439 30.1012L23.0872 29.724C23.3413 28.8098 23.7088 27.9287 24.1757 27.1026L22.8551 25.2522C22.5457 24.8226 22.5927 24.2334 22.9684 23.8616L25.4493 21.389C25.8222 21.0145 26.4135 20.9677 26.8445 21.2761L28.701 22.5923L28.6982 22.5895C29.5298 22.1242 30.4111 21.7579 31.3283 21.5018L31.7068 19.266V19.2687C31.7952 18.7483 32.2483 18.3656 32.776 18.3656H36.2846C36.815 18.3656 37.2653 18.7483 37.3537 19.2687L37.3563 19.2715ZM1.56819 47.9935C1.59029 43.731 5.05471 40.2812 9.33165 40.2671H16.4154H16.4127C16.8464 40.2671 17.1973 39.9174 17.1973 39.485V10.0856H51.4628C53.7144 10.0911 55.5405 11.9111 55.546 14.158V51.6695C55.5405 53.9164 53.7144 55.7365 51.4628 55.7392H9.332C5.05534 55.7255 1.59117 52.278 1.56853 48.0156L1.56819 47.9935Z" fill="#E30513"/>
</svg>
