<svg width="56" height="62" viewBox="0 0 56 62" fill="none" xmlns="http://www.w3.org/2000/svg">
<path d="M14.6673 14.3333H28.0007M38.0007 41H41.334M14.6673 27.6667H41.334M14.6673 44.3333L18.0007 47.6667L24.6673 41M12.0007 61H44.0007C47.7343 61 49.6012 61 51.0273 60.2734C52.2817 59.6342 53.3015 58.6144 53.9407 57.3599C54.6673 55.9339 54.6673 54.067 54.6673 50.3333V11.6667C54.6673 7.93298 54.6673 6.06614 53.9407 4.64006C53.3015 3.38565 52.2817 2.36578 51.0273 1.72662C49.6012 1 47.7343 1 44.0007 1H12.0007C8.26697 1 6.40013 1 4.97405 1.72662C3.71963 2.36578 2.69976 3.38565 2.06061 4.64006C1.33398 6.06614 1.33398 7.93298 1.33398 11.6667V50.3333C1.33398 54.067 1.33398 55.9339 2.06061 57.3599C2.69976 58.6144 3.71963 59.6342 4.97405 60.2734C6.40013 61 8.26697 61 12.0007 61Z" stroke="#E30513" stroke-width="2" stroke-linecap="round" stroke-linejoin="round"/>
</svg>
