<svg width="74" height="65" viewBox="0 0 74 65" fill="none" xmlns="http://www.w3.org/2000/svg">
<path d="M1.23675 29.3732C0.746719 29.746 0.537212 30.3923 0.728965 30.9747L2.57541 36.6278C2.76716 37.2173 3.30335 37.6185 3.92834 37.6292L6.88272 37.6576L8.99197 40.5658L8.11134 43.3853C7.93024 43.9748 8.13974 44.614 8.63687 44.9761L13.4449 48.4774C13.9456 48.8325 14.6274 48.8396 15.1281 48.488L17.5463 46.7694L20.9552 47.888L21.9104 50.6861C22.1022 51.2684 22.6561 51.6661 23.274 51.6661H27.9541L27.4889 48.7827H24.2966L23.4409 46.2651C23.2953 45.8284 22.9579 45.5017 22.5318 45.3668L17.7416 43.8043C17.3049 43.6694 16.8326 43.7404 16.4597 44.0032L14.2972 45.5407L11.1617 43.2575L11.9607 40.7292C12.0956 40.2854 12.0139 39.8202 11.7512 39.458L8.78614 35.378C8.52338 35.0158 8.09371 34.7956 7.63921 34.7885L4.99371 34.7601L3.79351 31.0778L5.90985 29.4976C6.27205 29.2242 6.4922 28.7981 6.4922 28.3436V23.3083C6.4922 22.8431 6.27559 22.4277 5.90985 22.1543L3.79351 20.5741L4.99371 16.8846L7.63921 16.8562C8.09373 16.8562 8.51984 16.6396 8.78614 16.2739L11.7512 12.1938C12.0246 11.8316 12.0956 11.3487 11.9607 10.9226L11.1617 8.39441L14.2972 6.11117L16.4597 7.64872C16.8325 7.90439 17.3687 7.9683 17.8055 7.82272L22.5424 6.28517C22.9792 6.13958 23.3059 5.80224 23.4515 5.37613L24.3073 2.86563H28.1884L29.0336 5.37613C29.1791 5.81289 29.5236 6.13958 29.9532 6.28517L34.7434 7.84045C35.1802 7.98604 35.6418 7.90436 36.0146 7.64869L38.1771 6.11114L41.3126 8.39438L40.5207 10.9226C40.3858 11.3594 40.503 11.8956 40.7658 12.2578L43.6846 16.2775C43.958 16.6397 44.377 16.8599 44.8386 16.8599L47.4841 16.8883L48.0558 18.6602L50.9392 18.195L49.9024 15.0133C49.7106 14.431 49.1673 14.0227 48.5494 14.0227L45.5844 13.9872L43.4858 11.086L44.3664 8.25948C44.5475 7.67713 44.338 7.03082 43.8409 6.66865L39.0223 3.17812C38.5216 2.81592 37.8504 2.81592 37.3391 3.16746L34.9316 4.8861L31.512 3.77816L30.5746 0.980038C30.3758 0.397678 29.8289 0 29.2111 0H23.2561C22.6382 0 22.0843 0.390606 21.8925 0.980038L20.9373 3.77816L17.5284 4.8861L15.1102 3.16746C14.6095 2.81236 13.9277 2.81237 13.427 3.17812L8.619 6.66865C8.11832 7.03085 7.90881 7.67714 8.09346 8.25948L8.9741 11.086L6.86485 13.9872L3.91046 14.0227C3.28194 14.0227 2.7458 14.4239 2.55754 15.0133L0.711094 20.6771C0.51934 21.2595 0.728848 21.9058 1.21887 22.268L3.60156 24.0328V27.6228L1.21887 29.3876L1.23675 29.3732Z" fill="#E30513"/>
<path d="M26.2362 14.2465C32.1912 14.2465 37.0984 18.7634 37.7338 24.5551L39.0867 24.8924L40.5604 23.994C39.662 16.8957 33.5792 11.3774 26.243 11.3774C18.2782 11.3774 11.791 17.8579 11.791 25.823C11.791 33.7878 18.2821 40.275 26.243 40.275C26.6158 40.275 26.9887 40.2465 27.3686 40.2217L29.9963 38.6415L30.4331 36.8341L30.3052 36.653C29.0411 37.1252 27.6776 37.3987 26.2429 37.3987C19.8619 37.3987 14.6708 32.2072 14.6708 25.8266C14.6708 19.4459 19.8623 14.2645 26.2429 14.2645L26.2362 14.2465Z" fill="#E30513"/>
<path d="M66.6582 26.845L61.4418 23.0526C60.9695 22.7081 60.3411 22.6797 59.8404 22.9993L57.4399 24.4978L53.786 23.6171L52.3301 21.1989C52.0212 20.6911 51.4495 20.4248 50.8742 20.5171L44.5003 21.5256C43.9179 21.625 43.4563 22.0511 43.3178 22.6157L42.6715 25.3784L39.4722 27.3314L36.7167 26.6496C36.1521 26.504 35.552 26.7206 35.2075 27.1964L31.415 32.4128C31.0706 32.8957 31.0422 33.5207 31.3618 34.0213L32.8603 36.4217L31.9796 40.0756L29.5614 41.5316C29.0536 41.8405 28.7802 42.4122 28.8796 42.9875L29.8881 49.3614C29.9875 49.9331 30.4136 50.4053 30.9782 50.5439L33.7337 51.1902L35.6974 54.3895L35.0156 57.1344C34.87 57.7061 35.0866 58.3062 35.5625 58.6542L40.7788 62.4466C41.2618 62.7911 41.8868 62.8088 42.3874 62.4999L44.7878 61.0014L48.4417 61.8821L49.8976 64.3003C50.1604 64.7442 50.6255 64.9998 51.1263 64.9998C51.1973 64.9998 51.2825 64.9892 51.3535 64.9821L57.7274 63.9736C58.2992 63.8742 58.7714 63.4481 58.9099 62.8835L59.5562 60.1208L62.7556 58.1678L65.5004 58.8496C66.065 58.9845 66.6723 58.7786 67.0203 58.2956L70.8127 53.0793C71.1571 52.607 71.1749 51.9785 70.8659 51.4778L69.3675 49.0774L70.2481 45.4235L72.6663 43.9676C73.167 43.6587 73.4298 43.087 73.3481 42.5117L72.3396 36.1378C72.2402 35.5554 71.8141 35.0938 71.2495 34.9553L68.4868 34.309L66.5339 31.1096L67.2156 28.3542C67.3506 27.7896 67.1446 27.1895 66.6617 26.845L66.6582 26.845ZM67.2583 36.9726L69.6587 37.5266L70.3689 41.9901L68.2596 43.2542C67.9329 43.4531 67.695 43.7798 67.6063 44.1526L66.4416 48.9784C66.3422 49.3512 66.4132 49.7525 66.6156 50.0685L67.9259 52.16L65.2698 55.8068L62.88 55.2244C62.5178 55.125 62.1165 55.1889 61.7899 55.3878L57.5535 57.98C57.2269 58.1789 56.9996 58.5056 56.9002 58.8784L56.3462 61.2788L51.8934 61.989L50.6222 59.8798C50.4304 59.5531 50.1037 59.3152 49.7309 59.2264L44.9051 58.0617C44.7951 58.0333 44.6885 58.0262 44.5678 58.0262C44.2944 58.0262 44.0423 58.0901 43.815 58.2357L41.7235 59.546L38.0767 56.9005L38.659 54.5001C38.7585 54.1273 38.6945 53.7367 38.4957 53.41L35.8964 49.1737C35.7046 48.847 35.3779 48.6197 35.0051 48.5274L32.6047 47.9628L31.8945 43.51L34.0037 42.2388C34.3304 42.047 34.5683 41.7203 34.6571 41.3475L35.8218 36.5217C35.9141 36.1489 35.8502 35.7583 35.6407 35.4316L34.341 33.3401L36.9865 29.6933L39.3763 30.2756C39.7491 30.3751 40.1575 30.3111 40.477 30.1123L44.7134 27.5201C45.0401 27.3212 45.2673 26.9945 45.3596 26.6217L45.9136 24.2213L50.3772 23.5111L51.6413 25.6203C51.8401 25.947 52.1668 26.1849 52.5397 26.2737L57.3654 27.4384C57.7382 27.5307 58.1288 27.4668 58.4555 27.2573L60.547 25.9576L64.1938 28.6031L63.6115 30.9929C63.5121 31.3657 63.576 31.767 63.7748 32.0936L66.367 36.3299C66.5659 36.6566 66.8926 36.8839 67.2654 36.9762L67.2583 36.9726Z" fill="#E30513"/>
<path d="M49.3864 31.7912C46.4604 32.2564 43.886 33.8259 42.1425 36.2263C40.406 38.6268 39.6959 41.5528 40.1681 44.4787C41.031 49.9436 45.7502 53.85 51.123 53.85C51.6947 53.85 52.277 53.8039 52.8594 53.7044C55.7854 53.2392 58.3599 51.6697 60.1034 49.2693C61.8398 46.8689 62.55 43.9429 62.0777 41.0169C61.1154 34.9733 55.4231 30.8358 49.3864 31.7912ZM57.7667 47.5822C56.4848 49.3541 54.5673 50.5188 52.4048 50.8633C47.9306 51.5735 43.7157 48.509 43.0053 44.0277C42.6609 41.8546 43.1793 39.6921 44.479 37.9094C45.7609 36.1375 47.6783 34.9728 49.8338 34.6283C50.2776 34.5644 50.6967 34.5183 51.1334 34.5183C55.0963 34.5183 58.5975 37.4087 59.2438 41.4532C59.5883 43.6158 59.0627 45.7889 57.7702 47.5715L57.7667 47.5822Z" fill="#E30513"/>
</svg>
