<svg width="66" height="65" viewBox="0 0 66 65" fill="none" xmlns="http://www.w3.org/2000/svg">
<path d="M65.11 31.59L47.3 13.78V1.3C47.3 0.52 46.78 0 46 0C45.22 0 44.7 0.52 44.7 1.3V18.2H21.3V1.3C21.3 0.52 20.78 0 20 0C19.22 0 18.7 0.52 18.7 1.3V13.78L0.89 31.59C0.76 31.72 0.63 31.85 0.63 31.98C0.5 32.11 0.5 32.37 0.5 32.5V63.7C0.5 64.48 1.02 65 1.8 65H64.2C64.98 65 65.5 64.48 65.5 63.7V32.5C65.5 32.37 65.5 32.11 65.37 31.98C65.37 31.85 65.24 31.72 65.11 31.59ZM61.08 31.2H47.3V19.5V17.42L61.08 31.2ZM44.7 53.3H21.3V20.8H44.7V53.3ZM18.7 19.5V31.2H4.92L18.7 17.42V19.5ZM62.9 62.4H3.1V33.8H18.7V54.6C18.7 55.38 19.22 55.9 20 55.9H46C46.78 55.9 47.3 55.38 47.3 54.6V33.8H62.9V62.4Z" fill="#E30513"/>
<path d="M36.8996 28.6H42.0996C42.8796 28.6 43.3996 28.08 43.3996 27.3C43.3996 26.52 42.8796 26 42.0996 26H36.8996C36.1196 26 35.5996 26.52 35.5996 27.3C35.5996 28.08 36.1196 28.6 36.8996 28.6Z" fill="#E30513"/>
<path d="M23.8996 28.6H29.0996C29.8796 28.6 30.3996 28.08 30.3996 27.3C30.3996 26.52 29.8796 26 29.0996 26H23.8996C23.1196 26 22.5996 26.52 22.5996 27.3C22.5996 28.08 23.1196 28.6 23.8996 28.6Z" fill="#E30513"/>
<path d="M36.8996 36.3998H42.0996C42.8796 36.3998 43.3996 35.8798 43.3996 35.0998C43.3996 34.3198 42.8796 33.7998 42.0996 33.7998H36.8996C36.1196 33.7998 35.5996 34.3198 35.5996 35.0998C35.5996 35.8798 36.1196 36.3998 36.8996 36.3998Z" fill="#E30513"/>
<path d="M23.8996 36.3998H29.0996C29.8796 36.3998 30.3996 35.8798 30.3996 35.0998C30.3996 34.3198 29.8796 33.7998 29.0996 33.7998H23.8996C23.1196 33.7998 22.5996 34.3198 22.5996 35.0998C22.5996 35.8798 23.1196 36.3998 23.8996 36.3998Z" fill="#E30513"/>
<path d="M36.8996 44.2001H42.0996C42.8796 44.2001 43.3996 43.6801 43.3996 42.9001C43.3996 42.1201 42.8796 41.6001 42.0996 41.6001H36.8996C36.1196 41.6001 35.5996 42.1201 35.5996 42.9001C35.5996 43.6801 36.1196 44.2001 36.8996 44.2001Z" fill="#E30513"/>
<path d="M23.8996 44.2001H29.0996C29.8796 44.2001 30.3996 43.6801 30.3996 42.9001C30.3996 42.1201 29.8796 41.6001 29.0996 41.6001H23.8996C23.1196 41.6001 22.5996 42.1201 22.5996 42.9001C22.5996 43.6801 23.1196 44.2001 23.8996 44.2001Z" fill="#E30513"/>
<path d="M36.8996 51.9999H42.0996C42.8796 51.9999 43.3996 51.4799 43.3996 50.6999C43.3996 49.9199 42.8796 49.3999 42.0996 49.3999H36.8996C36.1196 49.3999 35.5996 49.9199 35.5996 50.6999C35.5996 51.4799 36.1196 51.9999 36.8996 51.9999Z" fill="#E30513"/>
<path d="M23.8996 51.9999H29.0996C29.8796 51.9999 30.3996 51.4799 30.3996 50.6999C30.3996 49.9199 29.8796 49.3999 29.0996 49.3999H23.8996C23.1196 49.3999 22.5996 49.9199 22.5996 50.6999C22.5996 51.4799 23.1196 51.9999 23.8996 51.9999Z" fill="#E30513"/>
</svg>
