<svg width="59" height="65" viewBox="0 0 59 65" fill="none" xmlns="http://www.w3.org/2000/svg">
<path d="M57.625 44.9999V19.9999C57.6239 18.9039 57.3346 17.8275 56.7861 16.8786C56.2376 15.9297 55.4492 15.1417 54.5 14.5937L32.625 2.09369C31.6749 1.54514 30.5971 1.25635 29.5 1.25635C28.4029 1.25635 27.3251 1.54514 26.375 2.09369L4.5 14.5937C3.55082 15.1417 2.76244 15.9297 2.21394 16.8786C1.66545 17.8275 1.37612 18.9039 1.375 19.9999V44.9999C1.37612 46.096 1.66545 47.1724 2.21394 48.1213C2.76244 49.0702 3.55082 49.8582 4.5 50.4062L26.375 62.9062C27.3251 63.4547 28.4029 63.7435 29.5 63.7435C30.5971 63.7435 31.6749 63.4547 32.625 62.9062L54.5 50.4062C55.4492 49.8582 56.2376 49.0702 56.7861 48.1213C57.3346 47.1724 57.6239 46.096 57.625 44.9999Z" stroke="#E30513" stroke-width="2" stroke-linecap="round" stroke-linejoin="round"/>
<path d="M2.21875 16.75L29.5 32.5313L56.7812 16.75" stroke="#E30513" stroke-width="2" stroke-linecap="round" stroke-linejoin="round"/>
<path d="M29.5 64V32.5" stroke="#E30513" stroke-width="2" stroke-linecap="round" stroke-linejoin="round"/>
</svg>
