<svg width="113" height="55" viewBox="0 0 113 55" fill="none" xmlns="http://www.w3.org/2000/svg">
<path d="M35.1133 35.501H42.266V37.8431H38.8634V54.2992H35.1133V35.501Z" fill="#0079C2"/>
<path d="M46.5064 47.2422L47.1491 37.8431H47.3644L48.0071 47.2422H46.5064ZM42.3535 54.2992H46.0252L46.3727 49.3069H48.1409L48.4899 54.2992H52.16L50.2043 35.501H44.3093L42.3535 54.2992Z" fill="#0079C2"/>
<path d="M57.5309 47.7198V51.2638C57.5309 51.7414 57.8999 51.8801 58.1152 51.8801C58.4688 51.8801 58.7148 51.5873 58.7148 51.2638V46.8878C58.7148 46.3023 58.6072 45.6551 57.208 45.6551H55.6859V43.5904H57.2695C58.3305 43.5904 58.7148 43.3438 58.7148 42.1882V38.4594C58.7148 38.1358 58.4688 37.8431 58.1152 37.8431C57.8999 37.8431 57.5309 37.9663 57.5309 38.4594V41.5257H53.7793V38.86C53.7793 37.5503 53.933 35.501 56.5623 35.501H59.6681C62.2974 35.501 62.4665 37.5503 62.4665 38.86V41.8646C62.4665 43.9139 61.0366 44.4687 59.9141 44.4224V44.6073C62.4357 44.5457 62.4665 46.4872 62.4665 47.1497V50.9402C62.4665 52.2653 62.2974 54.2992 59.6681 54.2992H56.5623C53.933 54.2992 53.7793 52.2653 53.7793 50.9402V47.7198H57.5309Z" fill="#0079C2"/>
<path d="M64.9258 35.501H73.613V54.2992H69.8613V37.8431H68.6774V54.2992H64.9258V35.501Z" fill="#0079C2"/>
<path d="M79.8259 45.84V37.8431H80.3179C80.7176 37.8431 81.0098 38.182 81.0098 38.783V44.9001C81.0098 45.501 80.7176 45.84 80.3179 45.84H79.8259ZM76.0742 54.2992H79.8259V47.9047H81.9784C84.5923 47.9047 84.7614 45.8708 84.7614 44.5457V38.86C84.7614 37.5503 84.5923 35.501 81.9784 35.501H76.0742V54.2992Z" fill="#0079C2"/>
<path d="M92.1562 51.2638C92.1562 51.5873 91.9103 51.8801 91.5566 51.8801C91.3414 51.8801 90.9723 51.7414 90.9723 51.2638V38.4594C90.9723 37.9663 91.3414 37.8431 91.5566 37.8431C91.9103 37.8431 92.1562 38.1358 92.1562 38.4594V51.2638ZM87.2207 50.9402C87.2207 52.2653 87.3898 54.2992 90.0037 54.2992H93.1249C95.7388 54.2992 95.9079 52.2653 95.9079 50.9402V38.86C95.9079 37.5503 95.7388 35.501 93.1249 35.501H90.0037C87.3898 35.501 87.2207 37.5503 87.2207 38.86V50.9402Z" fill="#0079C2"/>
<path d="M108.117 35.501H113.007V54.2992H109.255V42.5118H109.117L107.179 54.2992H104.181L102.259 42.5118H102.121V54.2992H98.3691V35.501H103.243L105.688 48.7214L108.117 35.501Z" fill="#0079C2"/>
<path d="M30.2504 9.79972C29.1018 4.76119 26.2235 0.662561 25.8268 0C25.1995 0.939911 22.9039 4.56088 21.7369 8.56706C20.4623 13.0509 20.2747 17.0263 20.7144 20.9246C21.1511 24.8383 22.8009 28.8599 22.8009 28.8599C23.6773 30.9554 24.9904 33.2205 25.8453 34.3299C27.0984 32.6966 29.9782 27.8275 30.8762 21.4793C31.3759 17.9354 31.3974 14.8383 30.2504 9.79972ZM25.8268 33.0664C25.2625 32.0032 24.3861 29.9847 24.3031 26.8414C24.2816 23.8214 25.4916 21.2173 25.8453 20.678C26.1605 21.2173 27.2029 23.4824 27.3275 26.5795C27.4121 29.5995 26.4096 31.9878 25.8268 33.0664ZM29.9167 18.3514C29.8737 20.2774 29.6446 22.3113 29.3524 23.5286C29.457 21.4331 29.2064 18.4901 28.7267 16.1788C28.2469 13.8829 26.8893 10.0309 25.8053 8.25889C24.8044 9.95381 23.5712 13.282 22.9255 16.1634C22.2766 19.0448 22.2582 22.5425 22.2582 23.5902C22.086 22.712 21.6554 19.5532 21.7769 16.3945C21.8784 13.7905 22.4872 11.094 22.8209 9.86137C24.094 5.74733 25.5347 3.11249 25.8053 2.69646C26.0759 3.11249 27.8902 6.36366 28.8312 9.76891C29.7676 13.1742 29.9567 16.4407 29.9167 18.3514Z" fill="#0079C2"/>
<path d="M27.7758 35.5008H19.044V41.3714C19.0517 41.3714 19.0579 41.356 19.0655 41.356C21.1228 39.2913 24.4593 39.2913 26.5181 41.356C28.5753 43.4053 28.5753 46.7489 26.5181 48.8136C26.5089 48.8291 26.4996 48.8291 26.4904 48.8445C26.4796 48.8445 26.4689 48.8599 26.4597 48.8753C24.407 50.9092 21.7255 51.9261 19.044 51.9261C16.3502 51.9261 13.6564 50.9092 11.6022 48.8445C7.97976 45.2235 7.55078 39.5994 10.3122 35.5008C10.6843 34.9461 11.1133 34.4222 11.6022 33.9291C13.6564 31.8644 16.3502 30.8475 19.044 30.8475V16.7334C8.69319 16.7334 0.302734 25.131 0.302734 35.5008C0.302734 45.8706 8.69319 54.2836 19.044 54.2836C24.4408 54.2836 29.3026 51.9878 32.7221 48.336V35.5008H27.7758Z" fill="#0079C2"/>
</svg>
